<?xml version="1.0" encoding="UTF-8" standalone="no"?>
<!-- Created with Inkscape (http://www.inkscape.org/) -->

<svg
   version="1.1"
   id="svg1"
   width="340.32001"
   height="340.32001"
   viewBox="0 0 340.32001 340.32001"
   sodipodi:docname="MYRK second iteration-1.svg"
   inkscape:version="1.4.2 (f4327f4, 2025-05-13)"
   inkscape:export-filename="MYRK second iteration-1.png"
   inkscape:export-xdpi="400"
   inkscape:export-ydpi="400"
   xmlns:inkscape="http://www.inkscape.org/namespaces/inkscape"
   xmlns:sodipodi="http://sodipodi.sourceforge.net/DTD/sodipodi-0.dtd"
   xmlns="http://www.w3.org/2000/svg"
   xmlns:svg="http://www.w3.org/2000/svg">
  <defs
     id="defs1" />
  <sodipodi:namedview
     id="namedview1"
     pagecolor="#ffffff"
     bordercolor="#000000"
     borderopacity="0.25"
     inkscape:showpageshadow="2"
     inkscape:pageopacity="0.0"
     inkscape:pagecheckerboard="0"
     inkscape:deskcolor="#d1d1d1"
     inkscape:zoom="2"
     inkscape:cx="125.25"
     inkscape:cy="130"
     inkscape:window-width="1920"
     inkscape:window-height="1121"
     inkscape:window-x="-9"
     inkscape:window-y="-9"
     inkscape:window-maximized="1"
     inkscape:current-layer="g1" />
  <g
     inkscape:groupmode="layer"
     inkscape:label="Image"
     id="g1">
    <path
       id="path1"
       style="fill:#000000"
       d="m 330.24805,1.7011719 v 0.00586 0.00586 0.00586 0.00195 0.00195 0.00195 0.00195 0.00195 0.00195 c -1.14406,-0.0294 -3.28743,0.5444943 -5.29297,1.5214843 -6.13518,2.98886 -12.31383,11.0149909 -14.23438,18.4882809 -1.54538,6.01342 -0.65798,12.146696 2.64844,18.291016 1.02997,1.914 2.74027,5.082776 3.80078,7.041016 1.43895,2.65705 2.04569,4.453548 2.38672,7.080078 1.67618,12.90938 -2.07335,27.136302 -9.3418,35.449218 -10.22605,11.695588 -11.62056,16.475018 -9.23437,31.669918 0.83653,5.32692 0.52656,8.22064 -1.26172,11.75977 -1.57926,3.12547 -4.09131,5.57505 -5.36328,5.23047 -0.52417,-0.142 -1.33448,-0.7734 -1.80078,-1.4043 -0.77178,-1.04421 -0.80434,-1.72012 -0.36133,-7.52734 1.03239,-13.53342 0.83447,-15.58541 -2.97852,-30.859377 -3.35256,-13.429667 -3.08816,-20.001337 1.10547,-27.398437 4.71714,-8.32052 5.01028,-9.150432 4.92188,-14.001954 -0.13881,-7.62129 -2.61522,-13.056067 -8.21094,-18.023437 -5.64667,-5.01259 -11.89589,-6.65947 -18.62695,-4.90625 -5.07323,1.32141 -8.58588,4.222409 -12.41602,10.255859 -1.6731,2.63557 -2.35494,4.251465 -1.99609,4.546875 0.009,0.004 0.0161,0.007 0.0254,0.01172 0.023,0.009 0.047,0.01759 0.0703,0.02539 0.0185,-0.007 0.0363,-0.01303 0.0547,-0.01953 0.0865,-0.0276 0.17532,-0.04797 0.26172,-0.07617 0.0855,-0.0268 0.17114,-0.0546 0.24804,-0.101563 0.0601,-0.0366 0.11919,-0.0754 0.17578,-0.117187 0.04,-0.0303 0.0782,-0.06371 0.11329,-0.09961 0.0417,-0.0387 0.0796,-0.0811 0.12695,-0.113281 0.0468,-0.0387 0.0915,-0.07949 0.14062,-0.115234 0.006,-0.005 0.0137,-0.009 0.0195,-0.01367 l 0.006,-0.0059 c 0.0589,-0.0597 0.11586,-0.12176 0.16796,-0.1875 0.0586,-0.0767 0.11267,-0.156631 0.16407,-0.238281 0.0568,-0.0845 0.10946,-0.171882 0.16406,-0.257812 0.054,-0.0819 0.11513,-0.157788 0.17383,-0.236328 0.0328,-0.0465 0.0665,-0.0938 0.0957,-0.142579 0.0126,-0.0211 0.0284,-0.03557 0.043,-0.04297 0.005,-0.008 0.009,-0.01534 0.0137,-0.02344 0.0157,-0.0246 0.0325,-0.05002 0.0488,-0.07422 0.0173,-0.0248 0.034,-0.04912 0.0508,-0.07422 0.0157,-0.0229 0.0304,-0.04791 0.0469,-0.07031 0.0208,-0.0275 0.0428,-0.05328 0.0645,-0.08008 0.0215,-0.0282 0.0421,-0.05638 0.0644,-0.08398 0.024,-0.0306 0.0487,-0.06054 0.0742,-0.08984 0.0202,-0.0237 0.0413,-0.04741 0.0625,-0.07031 0.0177,-0.0205 0.0316,-0.04345 0.0488,-0.06445 0.0192,-0.0238 0.0407,-0.04541 0.0586,-0.07031 0.0184,-0.0245 0.0386,-0.04907 0.0586,-0.07227 0.018,-0.0224 0.0359,-0.04461 0.0547,-0.06641 0.0156,-0.0183 0.0314,-0.03623 0.0488,-0.05273 0.0108,-0.009 0.0223,-0.01649 0.0332,-0.02539 0.62178,-1.35765 4.3355,-4.136848 6.36719,-4.648438 2.87376,-0.72362 4.49694,-0.67558 8.56641,0.25 4.07993,0.92796 8.42354,3.089979 10.1914,5.074219 1.49373,1.67646 2.90323,5.521073 3.3379,9.101563 0.37245,3.0681 -0.95122,7.8791 -2.88282,10.482422 -4.75763,6.4124 -6.72507,12.789312 -6.35742,20.599609 0.17653,3.75025 0.58644,5.701966 2.22461,10.597656 2.64253,7.897377 3.73863,14.954807 2.97461,19.146487 -0.30741,1.68657 -0.96902,3.8454 -1.4707,4.79883 -0.98315,1.86848 -4.00415,4.5751 -5.91797,5.30273 -1.50712,0.573 -5.72479,0.19199 -8.35742,-0.75391 -2.08503,-0.74915 -6.03197,-4.64773 -7.35743,-7.26757 -1.36888,-2.70569 -4.2681,-6.71141 -5.88476,-8.13086 -1.72656,-1.51595 -4.79643,-2.71513 -8.35938,-3.26563 -1.48023,-0.2287 -2.30236,-0.68695 -3.00781,-1.67773 -2.81873,-3.95855 -3.53487,-8.141547 -2.17969,-12.746097 0.90457,-3.07356 2.5356,-16.552931 2.92774,-24.207031 0.52655,-10.2778 -1.01068,-14.822633 -7.34375,-21.726563 -1.86003,-2.0277 -3.39165,-4.076885 -3.47657,-4.640625 -0.008,-0.0122 -0.0162,-0.02431 -0.0234,-0.03711 -0.0224,-0.0383 -0.0441,-0.0777 -0.0645,-0.117187 l -0.002,-0.002 v -0.002 -0.002 l -0.002,-0.002 v -0.002 c -2.2e-4,-1.8e-4 -0.003,-0.005 -0.0117,-0.02148 -0.0104,-0.0201 -0.0183,-0.0416 -0.0273,-0.0625 -0.006,-0.015 -0.0116,-0.03002 -0.0176,-0.04492 v -0.002 h -0.002 v -0.002 l -0.002,-0.002 v -0.002 -0.002 c -7.2e-4,-0.002 -0.003,-0.0078 -0.004,-0.0098 l -0.004,-0.002 v -0.002 l -0.002,-0.002 v -0.01172 -0.01172 l -0.002,-0.002 c -0.002,-0.005 -0.006,-0.01022 -0.008,-0.01563 -0.009,-0.0275 -0.0174,-0.05598 -0.0254,-0.08398 -0.005,-0.0181 -0.0109,-0.03854 -0.0156,-0.05664 -0.005,-0.009 -0.009,-0.01609 -0.0137,-0.02539 -0.0171,-0.0324 -0.0332,-0.0636 -0.0508,-0.0957 -0.0189,-0.0346 -0.0368,-0.0694 -0.0527,-0.105469 -0.008,-0.0201 -0.0159,-0.0415 -0.0215,-0.0625 v -0.0059 l -0.002,-0.002 -0.002,-0.002 v -0.002 l -0.002,-0.002 c -0.0262,-0.0492 -0.0527,-0.100064 -0.0723,-0.152344 -0.0181,-0.0445 -0.0389,-0.087 -0.0625,-0.128906 -0.0225,-0.0448 -0.0452,-0.08891 -0.0606,-0.136719 -0.01,-0.0355 -0.019,-0.0729 -0.0254,-0.109375 l -0.002,-0.0039 h -0.002 -0.002 v -0.0039 h -0.002 c -0.004,-0.005 -0.009,-0.01524 -0.0117,-0.02344 l -0.002,-0.0039 v -0.0039 h -0.008 v -0.002 h -0.002 v -0.002 h -0.01 v -0.002 h -0.002 l -0.002,-0.002 h -0.002 v -0.002 h -0.002 v -0.002 h -0.002 c -8.6e-4,-0.002 -0.002,-0.006 -0.004,-0.01367 -0.007,-0.0283 -0.0161,-0.05849 -0.0156,-0.08789 v -0.0039 c -0.45695,-1.234929 -0.46095,-7.010672 0.0703,-8.070312 0.0283,-0.0568 0.0689,-0.14122 0.12305,-0.25 0.008,-0.0217 0.014,-0.04255 0.0215,-0.06445 0.0228,-0.0615 0.0508,-0.122867 0.0703,-0.185547 0.0169,-0.0532 0.0302,-0.107577 0.0488,-0.160156 0.0326,-0.0674 0.0704,-0.133049 0.10547,-0.199219 0.0361,-0.0602 0.0689,-0.121801 0.10547,-0.181641 0.0277,-0.0474 0.0576,-0.0947 0.0879,-0.140625 0.0247,-0.0388 0.0467,-0.07971 0.0625,-0.123047 0.013,-0.0406 0.0145,-0.0831 0.0215,-0.125 0.005,-0.0507 0.0217,-0.09949 0.041,-0.146484 0.0249,-0.0519 0.052,-0.102532 0.084,-0.150391 0.0325,-0.0519 0.0724,-0.09841 0.10743,-0.148437 0.0252,-0.0388 0.0516,-0.0768 0.0742,-0.117188 0.017,-0.0403 0.034,-0.0812 0.0469,-0.123047 0.0141,-0.0501 0.0302,-0.0984 0.0449,-0.148437 0.0179,-0.0512 0.0449,-0.0988 0.0703,-0.146484 0.0189,-0.0484 0.0507,-0.09 0.0762,-0.134766 0.0233,-0.0398 0.0484,-0.0771 0.0742,-0.115234 0.0241,-0.0386 0.0496,-0.07569 0.0723,-0.115235 0.024,-0.0433 0.0501,-0.08571 0.0742,-0.128906 0.0272,-0.0479 0.0587,-0.0928 0.0918,-0.136719 0.005,-0.007 0.0105,-0.01428 0.0156,-0.02148 0.308,-0.62055 0.63962,-1.289436 0.97266,-1.960938 2.35563,-4.74962 4.74514,-7.345866 9.81054,-10.654297 3.15699,-2.061949 3.27081,-2.194402 1.86133,-2.195312 -1.80431,-10e-4 -6.51825,2.011764 -8.55273,3.652344 -4.55729,3.67494 -5.90078,5.042777 -7.72656,7.867187 -2.73993,4.23864 -3.74619,7.833979 -3.70508,13.230469 0.0285,3.75133 0.2529,4.904629 1.6289,8.386719 0.87751,2.22065 2.59689,5.571202 3.82032,7.445312 2.89727,4.43816 3.36932,6.001372 3.36132,11.138672 -0.005,3.19033 -0.25072,4.834656 -0.96875,6.509766 -1.39356,3.25103 -4.59111,7.269864 -7.41796,9.322265 -1.35293,0.98228 -2.67555,2.027266 -2.93946,2.322266 -0.86012,0.9611 -3.26031,2.394892 -9.12109,5.451172 -6.12786,3.19557 -9.09438,5.779837 -11.60938,10.113281 -3.87198,6.67173 -5.71241,10.33731 -7.34961,14.64063 -1.00439,2.64001 -3.05464,7.36193 -4.55664,10.49414 l -2.73046,5.69531 -1.27735,-3.77539 c -2.55482,-7.55484 -7.35832,-14.0017 -13.54297,-18.17383 -1.17295,-0.79125 -2.24105,-1.55589 -2.37304,-1.69922 -0.57061,-0.61961 -7.78362,-3.84222 -11.61524,-5.18945 -10.41683,-3.662812 -13.82281,-6.970286 -18.16601,-17.644534 -1.03758,-2.550088 -2.21534,-6.228368 -2.61719,-8.173828 -0.39941,-1.94352 -1.03321,-4.344824 -1.40235,-5.333984 -0.357,-0.98349 -1.10917,-3.670547 -1.64453,-5.960938 -2.40665,-10.298839 -8.25548,-17.51516 -17.21875,-21.25 -5.03014,-2.095978 -5.58461,-2.549948 -10.28125,-8.423828 -5.41803,-6.77609 -8.272163,-13.554581 -8.234372,-19.55664 0.0107,-1.69895 -0.0811,-2.547792 -0.341797,-2.857422 -0.006,-0.004 -0.01158,-0.009 -0.01758,-0.01367 -0.007,-0.005 -0.01388,-0.01218 -0.02148,-0.01758 l -0.002,-0.002 h -0.002 l -0.002,-0.002 -0.002,-0.002 h -0.002 l -0.002,-0.002 -0.002,-0.002 h -0.002 c -0.009,-0.004 -0.01814,-0.0058 -0.02734,-0.0098 -0.0196,-0.005 -0.03999,-0.006 -0.05859,-0.01367 -0.0336,-0.01 -0.0669,-0.01969 -0.101562,-0.02539 -0.033,-0.007 -0.06581,-0.01172 -0.09961,-0.01172 -0.0367,-3.7e-4 -0.0745,9.48e-4 -0.111328,-0.002 h -0.002 -0.002 c -0.001,-7e-5 -0.0049,-4e-5 -0.0059,0 -0.008,7.3e-4 -0.01564,0.0029 -0.02344,0.0039 h -0.002 -0.002 l -0.0039,0.002 h -0.002 -0.002 l -0.002,0.002 -0.002,0.002 c -0.0292,0.007 -0.05784,0.01684 -0.08594,0.02734 -0.0287,0.0114 -0.0563,0.02331 -0.08398,0.03711 h -0.002 -0.002 -0.002 -0.002 v 0.002 h -0.002 l -0.002,0.002 h -0.002 -0.002 v 0.002 h -0.002 -0.0039 l -0.002,0.002 c -0.0057,0.0045 -0.01155,0.0093 -0.01758,0.01367 -0.01707,0.01306 -0.03448,0.02702 -0.05078,0.04102 -0.01354,0.01276 -0.02685,0.025 -0.03906,0.03906 -0.01082,0.01328 -0.02263,0.02557 -0.0332,0.03906 -0.0096,0.01172 -0.01669,0.02472 -0.02539,0.03711 -0.01044,0.01414 -0.02,0.02999 -0.0293,0.04492 -0.01,0.01546 -0.02108,0.02961 -0.03125,0.04492 -0.0089,0.01359 -0.01923,0.02634 -0.0293,0.03906 -0.0018,0.0023 -0.0042,0.0055 -0.0059,0.0078 -0.003,0.0066 -0.0065,0.01281 -0.0098,0.01953 v 0.002 0.002 l -0.002,0.002 c -0.0011,0.0016 -0.003,0.0022 -0.0039,0.0039 -0.0037,0.0068 -0.0061,0.0147 -0.0098,0.02148 v 0.002 l -0.002,0.002 -0.002,0.002 v 0.002 h -0.002 v 0.002 c -5.58e-4,0.0013 -0.0014,0.0026 -0.002,0.0039 -0.0047,0.0098 -0.009,0.01964 -0.01367,0.0293 -4.25e-4,9.25e-4 -0.0017,0.0049 -0.002,0.0059 -2.63e-4,0.001 3.22e-4,0.0049 0,0.0059 h -0.002 c -0.0017,0.0033 -0.0041,0.0064 -0.0059,0.0098 -0.02093,0.05574 -0.03685,0.112572 -0.05273,0.169922 -0.005,0.0165 -0.009,0.03223 -0.01367,0.04883 -0.107029,0.886291 -0.309345,2.594982 -0.535156,4.519532 -0.1204,1.026089 -0.210731,1.870542 -0.269531,2.576171 3.94e-4,0.007 0.0032,0.01798 0.0039,0.02539 v 0.002 0.002 0.002 c 0.003,0.0231 0.0078,0.04496 0.0078,0.06836 0,0.0227 -0.0058,0.04566 -0.0078,0.06836 -0.003,0.0237 -0.01072,0.04651 -0.01172,0.07031 -0.001,0.0205 -0.0039,0.0419 -0.0039,0.0625 v 0.05859 0.05664 c -1e-5,0.0204 3e-5,0.04015 0,0.06055 -3e-5,0.0207 1.7e-4,0.0419 0,0.0625 0,0.0209 8.2e-4,0.0417 0,0.0625 -0.001,0.0185 -0.0068,0.03619 -0.0078,0.05469 -0.001,0.0218 4e-4,0.04461 0,0.06641 -2e-5,0.0264 1e-4,0.05173 0,0.07813 -1.2e-4,0.0288 5.4e-4,0.05714 0,0.08594 -0.001,0.0324 -0.0039,0.06546 -0.0059,0.09766 v 0.0039 0.002 0.002 h -0.0039 v 0.0039 0.002 0.002 0.002 l 0.002,0.002 v 0.002 l 0.002,0.002 v 0.002 0.002 0.002 0.002 c -1.2e-4,0.003 -2e-5,0.0049 0,0.0059 1.2e-4,0.002 2.7e-4,0.006 0,0.01172 -0.001,0.0209 -0.0049,0.0416 -0.0039,0.0625 3e-5,0.0058 5.7e-5,0.01179 0,0.01758 0.0031,0.03149 0.0061,0.06226 0.0078,0.09375 4.33e-4,0.0085 -3.35e-4,0.01693 0,0.02539 4.25e-4,0.0044 -1.62e-4,0.0093 0,0.01367 0.0014,0.0397 0.0035,0.07927 0.0039,0.119141 4.47e-4,0.0483 -1.09e-4,0.09623 0,0.144531 -2.02e-4,0.0379 0.0054,0.07549 0.0078,0.113281 0.0011,0.01881 0.0013,0.0379 0.002,0.05664 6.13e-4,0.01896 0.0016,0.03758 0.002,0.05664 4.7e-5,0.0032 -3.1e-5,0.0065 0,0.0098 0.0026,0.0096 0.0048,0.01919 0.0059,0.0293 0,0.0128 0.0048,0.02852 0.0078,0.04102 h 0.002 c 0.001,0.006 6.09e-4,0.01112 0,0.01563 v 0.002 0.002 0.002 l -0.002,0.0039 v 0.002 c 6.99e-4,0.005 5.93e-4,0.01029 0.002,0.01563 9.5e-4,0.02 0.002,0.04025 0.002,0.06055 v 0.002 0.002 0.002 h 0.002 v 0.002 0.002 c 2e-5,1.2e-4 6e-5,0.0068 0,0.0078 v 0.002 h 0.002 v 0.0039 0.002 c 2.3e-4,0.007 0.002,0.01448 0.002,0.02148 0.001,0.0153 0.0039,0.03177 0.0059,0.04687 0.002,0.0157 0.0029,0.03111 0.0039,0.04687 5.6e-4,0.006 0.002,0.01138 0.002,0.01758 0.005,0.0242 0.01,0.05002 0.01367,0.07422 0.0328,0.16781 0.05263,0.338864 0.07813,0.507813 0.001,0.01 0.0068,0.0197 0.0078,0.0293 0.002,0.009 9.53e-4,0.01659 0.002,0.02539 v 0.002 0.002 h 0.0039 v 0.002 c 7.59e-4,0.003 0.0029,0.01 0.0039,0.01367 v 0.002 c 0.001,0.008 0.0029,0.01739 0.0039,0.02539 v 0.002 l 0.002,0.002 v 0.002 0.002 0.002 c 0.0221,0.0644 0.04455,0.128009 0.06445,0.193359 0.0495,0.17138 0.07711,0.347835 0.117188,0.521485 0.0284,0.12196 0.05332,0.24548 0.07422,0.36914 0.003,0.007 0.0068,0.01248 0.0098,0.02148 0.01,0.0362 0.0189,0.07289 0.0293,0.109376 0.26889,0.654319 0.475155,1.530866 0.478515,2.097656 0.004,0.66085 0.413287,2.603219 0.910157,4.318359 2.937509,10.13982 6.299239,14.31201 15.113279,18.75 2.67441,1.34661 5.69076,3.240683 6.70313,4.208985 3.05421,2.92128 5.30445,8.177733 5.99023,13.996093 0.49396,4.19094 -0.31671,8.718494 -2.73633,15.246094 -1.75398,4.731827 -2.32961,5.875337 -5.09765,10.154297 -4.36154,6.742258 -5.38619,11.588968 -4.25782,20.148438 1.27015,9.63538 -0.1258,16.5718 -4.68164,23.24609 -2.96258,4.3402 -5.35889,10.47487 -6.36132,16.29297 l -0.59961,3.47656 -1.04493,-1.67968 c -0.94203,-1.51194 -1.32643,-3.88355 -1.203121,-7.44141 0.0183,-0.528 0.505301,-2.90329 1.080081,-5.2793 2.35829,-9.74866 2.23363,-17.34999 -0.35547,-21.83984 -3.443172,-5.97181 -6.034858,-8.64292 -12.310548,-12.69141 -5.14337,-3.31804 -5.997028,-4.28332 -9.361328,-10.587887 -3.80344,-7.12746 -5.043792,-11.32264 -4.638672,-15.681641 0.50834,-5.46948 5.114533,-16.297641 8.064453,-18.957031 1.85781,-1.67485 2.942143,-3.373346 2.376953,-3.722656 -0.689211,-0.42596 -5.239047,3.119784 -11.904297,9.277344 -5.10206,4.71344 -7.136959,6.98972 -9.755859,10.90625 -3.9016,5.83471 -4.354335,7.10502 -4.666016,13.136719 -0.18619,3.603189 -0.01991,5.467688 0.791016,8.880862 1.12988,4.75649 3.124315,10.12041 4.140625,11.13672 1.03023,1.03023 1.35569,3.90348 0.787109,6.96093 -0.580269,3.12019 -3.244299,8.96023 -5.099609,11.18164 l -1.201172,1.43946 -0.01758,-2.16797 C 57.442217,126.44653 55.25858,119.13056 52.4375,113.02734 51.02002,109.96055 48.920213,107.92353 40.396484,101.3418 32.389204,95.152988 28.61431,90.349081 25.125,81.898438 23.08121,76.948628 21.905363,64.561613 22.876953,58.220703 c 0.95752,-6.24904 2.202333,-9.249901 6.507813,-15.681641 4.44259,-6.636549 4.877203,-7.536459 5.095703,-10.5625 0.23243,-3.21919 -0.770632,-2.820709 -2.044922,0.8125 -0.96749,2.758472 -1.793938,3.944563 -5.460938,7.851563 -4.47653,4.76955 -7.748468,9.692791 -9.111328,13.707031 -1.23596,3.6404 -1.807248,9.900883 -1.574219,17.226563 0.20881,6.56414 0.267947,6.874904 2.466797,12.964843 3.1862,8.824507 7.81613,15.415635 16.25,23.128908 8.58675,7.85267 11.634287,12.92803 13.154297,21.91211 0.7989,4.72198 0.79935,5.18497 0,9.66015 -0.69214,3.87497 -1.374369,5.76485 -3.880859,10.75977 -5.55795,11.07589 -7.238967,18.2113 -6.873047,29.1582 0.20093,6.01096 0.375266,7.08165 1.791016,10.98047 0.8628,2.376 2.28239,5.74045 3.15625,7.47656 1.72223,3.42165 4.774907,11.8369 5.554687,15.31641 0.77954,3.47847 -0.818293,18.7258 -2.689453,25.66797 -1.76035,6.53208 -6.595775,19.35422 -9.015625,23.9082 -2.68455,5.05215 -6.782107,9.16266 -11.654297,11.69336 -2.09788,1.08966 -4.570141,2.13969 -5.49414,2.33399 -4.906481,1.03163 -11.0178795,5.81947 -13.3242192,10.4375 -1.03585,2.07407 -1.3862723,3.72656 -0.7890626,3.72656 0.1576701,0 1.2585123,-1.08039 2.4453126,-2.40039 0.98629,-1.097 2.0190856,-2.02734 2.5410156,-2.31055 v -0.002 l 0.00195,-0.002 0.00195,-0.002 v -0.004 l 0.00195,-0.002 0.00195,-0.002 H 9.9375 l 0.00195,-0.004 0.00195,-0.002 0.00195,-0.004 c 5.1e-4,-5e-4 0.00291,-0.003 0.00391,-0.004 l 0.00391,-0.002 0.00391,-0.002 c 0.0128,-0.009 0.026363,-0.0164 0.039063,-0.0254 v -0.0117 l 0.00391,-0.004 v -0.0117 h 0.00391 0.0078 0.0039 c 0.008,-0.007 0.01318,-0.0145 0.02148,-0.0215 0.0215,-0.0163 0.04271,-0.0319 0.06641,-0.0449 0.0212,-0.0118 0.04511,-0.0235 0.06641,-0.0352 0.0251,-0.0143 0.04809,-0.0332 0.07226,-0.0488 0.0249,-0.016 0.05013,-0.0288 0.07813,-0.0391 0.013,-0.006 0.02576,-0.0136 0.03906,-0.0195 h 0.002 l 0.002,-0.0117 0.0039,-0.0117 h 0.0059 v -0.0117 l 0.0039,-0.0117 0.0039,-0.0117 v -0.01 h 0.0039 c 9.5e-4,-0.002 0.0029,-0.009 0.0039,-0.0117 l 0.002,-0.0117 0.002,-0.01 c 0.0178,-0.0175 0.03714,-0.0333 0.05664,-0.0488 0.0236,-0.018 0.04691,-0.0326 0.07031,-0.0508 0.022,-0.0184 0.04641,-0.0341 0.06641,-0.0547 0.021,-0.0209 0.04306,-0.0391 0.06836,-0.0547 0.0256,-0.0175 0.05007,-0.0399 0.07617,-0.0566 0.0276,-0.0184 0.05268,-0.0359 0.08008,-0.0547 0.0277,-0.0181 0.05578,-0.0373 0.08398,-0.0547 0.0242,-0.0148 0.04621,-0.0338 0.07031,-0.0488 0.0211,-0.0147 0.04225,-0.0297 0.06445,-0.043 0.0181,-0.0111 0.03378,-0.0249 0.05078,-0.0371 0.0187,-0.0137 0.03855,-0.0257 0.06055,-0.0332 0.0152,-0.007 0.02992,-0.0113 0.04492,-0.0176 0.008,-0.006 0.01564,-0.0122 0.02344,-0.0176 0.0135,-0.008 0.02772,-0.018 0.04102,-0.0273 0.0128,-0.009 0.02656,-0.02 0.03906,-0.0293 0.0129,-0.008 0.02381,-0.0213 0.03711,-0.0293 0.01,-0.005 0.0193,-0.01 0.0293,-0.0137 h 0.002 0.002 0.002 c 3.5e-4,-7e-4 0.002,-0.0107 0.002,-0.0117 h 0.002 l 0.002,-0.004 h 0.002 l 0.002,-0.01 0.002,-0.0117 c 0.0148,-0.0111 0.02992,-0.0224 0.04492,-0.0332 0.0147,-0.01 0.02992,-0.0193 0.04492,-0.0293 l 0.0059,-0.008 v -0.0117 c 1.75091,-1.52335 7.694259,-3.86955 11.886719,-4.57421 2.86428,-0.48143 5.207555,-1.51317 7.421875,-3.26563 1.01931,-0.80671 3.074386,-2.25637 4.566406,-3.2207 8.24935,-5.33181 17.744361,-21.3038 21.394531,-35.98828 1.52695,-6.14287 2.410398,-16.39358 2.017578,-23.42188 -0.33507,-5.99518 -0.819428,-8.36591 -3.105468,-15.23047 -3.163661,-9.49986 -4.32277,-14.37507 -5.21875,-21.95312 -0.37096,-3.1375 1.151916,-13.34328 2.597656,-17.40821 1.84521,-5.18808 4.553262,-9.71555 8.326172,-13.91992 4.77639,-5.32266 7.767118,-9.90719 10.236328,-15.69726 2.64664,-6.20615 3.166622,-8.09556 3.169922,-11.51758 0.004,-4.52178 -0.8803,-7.55514 -3.125,-10.7207 -1.12953,-1.59292 -2.366077,-3.64547 -2.748047,-4.56055 -0.7854,-1.8816 -1.498898,-5.263663 -1.111328,-5.263673 0.15075,0.023 1.011745,1.50519 1.921875,3.312503 1.85045,3.67449 3.726134,6.5841 5.021484,7.79101 0.46898,0.4369 1.264138,1.3076 1.767578,1.9336 0.50344,0.62624 3.112828,3.02284 5.798828,5.32617 4.30853,3.69474 5.007805,4.51371 5.927735,6.95312 1.31835,3.49581 1.716919,8.99151 1.005859,13.86133 -0.70061,4.79858 -0.05331,11.69407 1.826172,19.44531 1.22998,5.07249 1.594303,5.90725 3.99414,9.15235 1.452501,1.96404 3.320591,4.0965 4.150391,4.73828 0.829787,0.64179 2.098667,1.61704 2.820317,2.16601 2.19735,1.67153 8.51219,4.97 11.47461,5.99415 3.39202,1.17268 9.9411,1.79535 10.4375,0.99218 0.20005,-0.32372 -0.12435,-0.7228 -0.79688,-0.97851 -0.62478,-0.23751 -1.77172,-0.9625 -2.54883,-1.61133 -0.77712,-0.64886 -2.09209,-1.52779 -2.92187,-1.95313 -2.03717,-1.04419 -4.83301,-4.96658 -5.76563,-8.08789 -1.82687,-6.11412 0.25235,-15.98806 4.83203,-22.94336 5.49159,-8.34029 6.00624,-10.42247 6.17774,-24.9707 l 0.13867,-11.75976 1.83984,-3.60157 c 2.76898,-5.416019 5.55655,-10.080076 6.02344,-10.080076 0.81432,0 2.94713,7.522776 3.49219,12.316406 0.46371,4.07823 0.42823,5.72515 -0.21485,10.08008 -0.42276,2.86297 -1.1665,6.49998 -1.65234,8.08398 -1.29393,4.21862 -1.18007,16.66515 0.20117,22.16016 1.22526,4.8728 3.18638,9.40924 5.15235,11.91992 5.67449,7.24683 9.59126,15.74404 12.42773,26.96094 2.73506,10.81587 3.17578,13.68652 3.17578,20.65625 0,8.02387 -0.9841,13.1911 -4.61719,24.25976 -2.71865,8.28271 -3.93346,10.95737 -8.33984,18.36329 -5.35409,8.99873 -7.11925,12.92665 -7.69141,17.10546 -1.09336,7.98545 0.75462,15.93831 4.90235,21.09961 1.68226,2.09334 6.65864,5.53447 10.94531,7.56836 3.34523,1.58719 9.45403,3.09187 9.86328,2.42969 0.0697,-0.11273 0.0187,-0.25391 -0.12109,-0.41016 v -0.002 h -0.002 v -0.0117 l -0.002,-0.01 -0.002,-0.004 v -0.004 l -0.002,-0.002 -0.002,-0.002 -0.002,-0.006 -0.002,-0.002 c -0.0757,-0.023 -0.14971,-0.0487 -0.22461,-0.0742 -0.0731,-0.0247 -0.14801,-0.0443 -0.22071,-0.0703 -0.0708,-0.0258 -0.14119,-0.053 -0.21289,-0.0762 -0.0762,-0.0245 -0.15377,-0.0477 -0.23047,-0.0703 -0.0832,-0.0259 -0.16639,-0.0523 -0.24609,-0.0879 -0.0707,-0.0297 -0.14049,-0.0626 -0.21289,-0.0879 -0.0525,-0.0155 -0.10443,-0.0346 -0.15625,-0.0527 h -0.002 -0.002 -0.002 l -0.002,-0.006 c -0.0511,-0.014 -0.10165,-0.0316 -0.15235,-0.0469 -0.0545,-0.0149 -0.10901,-0.0271 -0.16211,-0.0469 -0.0515,-0.0156 -0.10415,-0.0317 -0.15625,-0.0449 -0.0338,-0.008 -0.0668,-0.0185 -0.10156,-0.0215 -0.0386,-0.005 -0.0768,-0.0125 -0.11523,-0.0195 -0.0368,-0.008 -0.0753,-0.0133 -0.11133,-0.0254 -0.0381,-0.0122 -0.0761,-0.0263 -0.11328,-0.041 -0.0388,-0.0152 -0.0764,-0.0361 -0.10742,-0.0644 -0.0241,-0.0232 -0.052,-0.0278 -0.082,-0.041 -0.008,-0.004 -0.0169,-0.008 -0.0254,-0.0117 -0.0464,-0.0117 -0.0923,-0.0258 -0.13867,-0.0371 -0.0853,-0.02 -0.16915,-0.0434 -0.25195,-0.0723 -0.0693,-0.0252 -0.13698,-0.0506 -0.20508,-0.0781 -0.0144,-0.003 -0.0286,-0.009 -0.043,-0.0117 -0.1486,-0.034 -0.29784,-0.0672 -0.4414,-0.11914 -0.0539,-0.0224 -0.10719,-0.0474 -0.16016,-0.0723 l -0.002,-0.0117 -0.002,-0.0117 -0.002,-0.0117 -0.002,-0.0117 -0.004,-0.01 -0.004,-0.004 h -0.004 -0.006 -0.004 l -0.002,-0.0117 -0.004,-0.004 h -0.004 -0.006 c -0.0228,-0.007 -0.0478,-0.0141 -0.0703,-0.0215 h -0.006 -0.002 -0.002 c -0.005,-0.001 -0.011,-0.004 -0.0176,-0.006 h -0.006 v 0.0625 h -0.004 l -0.004,-0.004 -0.002,-0.002 -0.006,-0.004 c -0.0303,-0.008 -0.0618,-0.0134 -0.0918,-0.0234 -0.0366,-0.0121 -0.0733,-0.0218 -0.10937,-0.0352 -0.0353,-0.0148 -0.0701,-0.0343 -0.10547,-0.0488 -0.0167,-0.007 -0.0338,-0.0114 -0.0508,-0.0176 -0.0102,-7.4e-4 -0.0211,-0.007 -0.0332,-0.0117 -0.012,-0.004 -0.0233,-0.01 -0.0352,-0.0137 -0.0158,-0.006 -0.0311,-0.0115 -0.0469,-0.0176 -0.01,-3.9e-4 -0.0216,-0.002 -0.0332,-0.006 -0.0462,-0.0151 -0.0225,-0.007 -0.0703,-0.0234 -0.0804,-0.0289 -0.16039,-0.0593 -0.23829,-0.0937 l -0.002,-0.002 c -4.21871,-0.87482 -10.38602,-6.33791 -12.85156,-11.63672 -2.15889,-4.63983 -2.36454,-6.2118 -1.42969,-10.89453 0.70332,-3.523 1.9013,-6.47497 3.41797,-8.64063 0.009,-0.0329 0.0248,-0.0682 0.0508,-0.10547 0.0558,-0.0801 0.10772,-0.16183 0.16602,-0.24023 0.0865,-0.12352 0.17828,-0.24291 0.26367,-0.36719 0.0212,-0.0308 0.0423,-0.0631 0.0625,-0.0937 0.10588,-0.15622 0.21143,-0.31343 0.32422,-0.46484 0.0463,-0.0628 0.0936,-0.12563 0.14062,-0.1875 0.0225,-0.0449 0.0455,-0.0886 0.0723,-0.13086 0.0253,-0.0425 0.05,-0.0857 0.0801,-0.125 0.03,-0.04 0.0598,-0.0798 0.0879,-0.12109 0.031,-0.0477 0.0617,-0.0944 0.0976,-0.13868 v -0.002 -0.002 h 0.002 v -0.002 h 0.004 c 0.0604,-0.10484 0.1218,-0.20942 0.19727,-0.30468 0.10857,-0.16106 0.2244,-0.31598 0.34179,-0.47071 0.1407,-0.19671 0.28265,-0.3935 0.42383,-0.58984 0.0728,-0.1078 0.14084,-0.21786 0.21289,-0.32617 0.0745,-0.12614 0.15179,-0.25192 0.23633,-0.3711 0.11747,-0.16061 0.20993,-0.33582 0.32227,-0.5 0.13649,-0.21721 0.2856,-0.42652 0.42383,-0.64257 0.12013,-0.18469 0.23052,-0.37518 0.36132,-0.55274 0.0972,-0.1395 0.19312,-0.28069 0.29883,-0.41406 0.1365,-0.2211 0.27596,-0.43916 0.40625,-0.66406 0.14761,-0.24325 0.30539,-0.48069 0.45508,-0.72266 0.15086,-0.22938 0.29025,-0.46515 0.43359,-0.69922 0.13466,-0.20869 0.26587,-0.42083 0.39844,-0.63086 0.14116,-0.23627 0.29365,-0.46604 0.4336,-0.70312 0.14563,-0.23635 0.29269,-0.47018 0.4375,-0.70703 0.16128,-0.26292 0.31856,-0.5275 0.48828,-0.78516 0.1674,-0.26398 0.33584,-0.52746 0.5039,-0.79102 0.14112,-0.20312 0.28208,-0.40812 0.42578,-0.60937 0.12154,-0.17483 0.24147,-0.35076 0.36328,-0.52539 0.11943,-0.16764 0.2343,-0.33881 0.35743,-0.50391 l 0.002,-0.002 0.008,-0.002 0.002,-0.002 h 0.004 v -0.002 h 0.002 l 0.004,-0.002 v -0.002 c 0.004,-0.006 0.009,-0.0116 0.0137,-0.0176 v -0.002 l 0.002,-0.004 0.004,-0.002 0.002,-0.002 h 0.002 l 0.002,-0.002 0.002,-0.004 c 0.0135,-0.0202 0.0274,-0.038 0.041,-0.0586 0.009,-0.0132 0.0196,-0.028 0.0293,-0.041 v -0.002 -0.002 -0.008 l 0.002,-0.002 v -0.004 l 0.004,-0.004 0.002,-0.004 c 0.009,-0.0147 0.0193,-0.0288 0.0293,-0.043 0.0131,-0.0202 0.0267,-0.0393 0.041,-0.0586 0.0157,-0.0213 0.0316,-0.0428 0.0469,-0.0644 v -0.002 l 0.004,-0.0117 0.008,-0.002 0.002,-0.002 0.002,-0.002 c 0.002,-0.004 0.004,-0.008 0.006,-0.0117 0.007,-0.0138 0.0148,-0.0274 0.0234,-0.041 0.004,-0.006 0.009,-0.0134 0.0137,-0.0195 0.003,-0.006 0.007,-0.0116 0.01,-0.0176 0.01,-0.0197 0.0208,-0.0394 0.0312,-0.0586 0.01,-0.0167 0.0208,-0.0327 0.0312,-0.0488 0.01,-0.0134 0.0191,-0.0262 0.0293,-0.0391 0.0118,-0.0154 0.0232,-0.0316 0.0352,-0.0469 0.0176,-0.0227 0.0358,-0.0448 0.0547,-0.0664 9.9e-4,-0.001 0.003,-0.003 0.004,-0.004 1.64229,-3.05798 4.80713,-9.86848 6.11133,-13.32813 0.79619,-2.11197 1.8084,-5.67592 2.25,-7.91992 0.4416,-2.24405 1.11323,-5.48322 1.49219,-7.19922 3.04508,-13.78872 2.79952,-27.04436 -0.77734,-42.10937 -2.01338,-8.47999 -5.14798,-14.73655 -10.41407,-20.78516 -1.02712,-1.17975 -3.07709,-4.13228 -4.55468,-6.56055 -2.22659,-3.65915 -2.78691,-5.03873 -3.27344,-8.05468 -0.72102,-4.46959 -0.4722,-7.22378 1.64844,-18.25 0.91394,-4.75199 1.84277,-9.93547 2.0625,-11.51953 l 0.39843,-2.88086 1.54883,0.14843 c 3.30908,0.31871 13.39993,4.61482 18.01953,7.67188 3.04093,2.01238 8.14589,10.43309 9.37891,15.46875 0.59662,2.43657 0.7265,8.07663 0.34375,14.87109 -0.30993,5.50157 0.41938,12.63633 1.69336,16.5625 0.98636,3.03981 6.30536,13.8574 8.61328,17.51758 2.59372,4.11339 3.60494,8.57789 3.58594,15.83984 -0.0166,6.34149 -0.057,6.5819 -1.85938,11.2793 -5.41397,14.11 -5.25106,13.52682 -5.28906,18.96094 -0.0394,5.63615 0.86151,9.25059 3.70898,14.87891 2.22555,4.39905 7.8426,11.78102 13.85938,18.21679 6.43508,6.88319 8.07617,9.92018 8.07617,14.93555 0,3.03487 -0.19357,3.75869 -1.75391,6.54883 -0.96486,1.72535 -3.18393,4.89354 -4.93164,7.03906 -5.05782,6.20922 -5.38195,6.77737 -5.66601,9.91016 -0.37441,4.129 0.55042,6.90104 3.23242,9.68359 1.44674,1.50097 2.49188,2.29598 3.00391,2.3125 v 0.0273 c 0.0145,4.7e-4 0.0293,7.9e-4 0.043,0 v 0.004 c 0.20526,-0.0118 0.3125,-0.1658 0.3125,-0.4668 0,-0.25371 -0.45258,-0.88543 -1.00782,-1.40234 -1.55552,-1.44921 -2.35892,-3.33936 -2.66015,-6.26367 -0.22845,-2.21773 -0.064,-3.14935 0.96484,-5.4668 1.37276,-3.09213 2.4859,-4.26094 5.34375,-5.61133 2.68163,-1.26713 8.14266,-6.9451 9.37695,-9.75 1.47428,-3.35022 1.69004,-6.74917 0.71094,-11.1875 -1.32884,-6.02091 -2.70395,-8.24174 -10.18164,-16.44336 -9.35266,-10.25811 -11.74049,-14.6606 -13.03906,-24.03125 -0.57888,-4.17726 0.36771,-9.01926 3.71093,-18.97851 2.82652,-8.41992 3.41297,-11.60265 3.41797,-18.54883 0.003,-3.76419 -0.24868,-5.9294 -0.95703,-8.22266 -1.2664,-4.10016 -2.65881,-7.19695 -3.97656,-8.84765 -6.67683,-8.36385 -9.5626,-17.26511 -8.01562,-24.72461 0.83044,-4.0044 3.46562,-9.35571 5.92382,-12.03321 1.0944,-1.19203 1.994,-2.35209 2,-2.57617 0.006,-0.22416 1.13141,-2.59849 2.5,-5.27734 1.36859,-2.67885 3.01244,-6.35108 3.65235,-8.16016 2.169,-6.13223 8.33558,-18.19078 10.8457,-21.20703 2.2645,-2.72109 7.78161,-6.821565 12.87109,-9.566405 2.37607,-1.28145 2.64213,-0.75047 0.91016,1.8125 -1.98051,2.93057 -2.88072,8.452605 -2.54297,15.591795 0.25488,5.38733 0.53004,6.96104 2.02149,11.51953 0.95013,2.90399 2.14751,5.96035 2.66015,6.79297 1.33362,2.16605 3.55427,8.84712 4.52344,13.60742 0.64546,3.17036 0.76844,5.41778 0.55273,10.08008 -0.23369,5.05081 -1.52518,13.19147 -2.51172,15.82617 -0.49646,1.32589 -1.64243,13.68511 -1.64843,17.77344 -0.003,2.24398 0.42358,6.34715 0.94922,9.11914 4.40723,23.24184 4.54369,24.28707 3.83984,29.52149 -0.28395,2.11198 -0.70114,5.5931 -0.92773,7.73632 -0.28787,2.72301 -1.36312,6.69844 -3.56641,13.19922 -5.45401,16.09199 -5.13752,20.75857 1.67383,24.73633 2.91684,1.70342 3.91383,2.89076 4.64453,5.53711 0.40651,1.47226 0.27639,2.11327 -0.93945,4.64649 -0.6637,1.38283 -1.53127,2.71434 -2.08985,3.24218 -0.0401,0.0785 -0.0873,0.15278 -0.13867,0.22461 -0.0936,0.12617 -0.1886,0.25156 -0.2832,0.37695 -0.11485,0.12618 -0.22493,0.25495 -0.33789,0.38282 -0.15224,0.17088 -0.29524,0.35196 -0.45118,0.51953 -0.009,0.01 -0.0181,0.0178 -0.0273,0.0273 -0.14337,0.28704 -0.58955,0.63008 -1.14844,0.87891 -0.10973,0.0786 -0.21947,0.15492 -0.32617,0.23828 -0.13029,0.0958 -0.26387,0.18786 -0.40234,0.27148 -0.13109,0.0711 -0.24741,0.16601 -0.36719,0.25391 -0.14583,0.10241 -0.29757,0.1929 -0.45117,0.2832 -0.16035,0.10648 -0.33247,0.19075 -0.51172,0.25977 -0.18692,0.0799 -0.36207,0.18328 -0.54102,0.2793 -0.15886,0.0818 -0.3268,0.14571 -0.49609,0.20312 -0.0159,0.0116 -0.0311,0.0232 -0.0469,0.0352 -0.0848,0.0601 -0.17018,0.12174 -0.25782,0.17773 -0.1038,0.0657 -0.20283,0.13557 -0.3125,0.19141 -0.13462,0.0675 -0.27798,0.11684 -0.42187,0.16015 -0.187,0.0759 -0.37505,0.14685 -0.56641,0.21094 -0.22501,0.0705 -0.45472,0.12788 -0.68555,0.17578 -0.21104,0.0363 -0.42237,0.0637 -0.63281,0.10352 -0.26016,0.0691 -0.52002,0.13966 -0.77734,0.21875 -0.0279,0.009 -0.056,0.018 -0.084,0.0273 -0.48145,0.2275 -0.86417,0.46946 -1.02734,0.66602 -1.65841,1.99826 6.71987,0.81558 12.4668,-1.75977 3.0212,-1.35388 4.23642,-2.58728 5.82226,-5.90429 2.53269,-5.29918 1.82582,-8.63208 -3.45703,-16.32032 -2.96775,-4.31898 -3.39571,-5.53094 -3.08594,-8.7207 0.32452,-3.34164 3.23992,-12.40623 5.32618,-16.56055 0.88436,-1.76097 2.06957,-4.98562 2.63476,-7.16601 0.97612,-3.76572 1.01092,-4.60875 0.67774,-16.82227 -0.19292,-7.07186 -0.62923,-14.32452 -0.96875,-16.11523 -0.3395,-1.79072 -0.96749,-5.09051 -1.39454,-7.33399 -0.73493,-3.86082 -0.72703,-4.11364 0.0742,-4.71484 1.20339,-0.89913 3.82459,-0.3718 6.10157,1.22851 2.43833,1.71367 5.77636,6.06424 6.5039,8.47461 1.04307,3.45573 4.32199,10.41809 6.19922,13.16602 2.02765,2.9681 5.94764,6.85839 11.56641,11.48047 1.98,1.6288 4.19843,3.72383 4.93164,4.6543 2.23107,2.83125 3.85307,7.23097 4.43359,12.02929 0.90164,7.4524 1.74746,10.40226 4.60938,16.07227 2.77289,5.49362 2.66822,8.81588 -0.38282,12.1582 -2.34362,2.56739 -4.0011,6.21741 -4.0625,8.94336 -0.11327,5.02777 4.8393,9.98074 8.94922,8.94922 1.79602,-0.45077 1.45464,-1.06468 -0.92578,-1.66406 -3.19606,-0.80478 -5.2102,-4.25609 -4.39062,-7.52149 0.17359,-0.69162 2.11448,-3.06832 4.31445,-5.2832 6.71219,-6.75767 6.8338,-7.81851 2.14258,-18.87109 l -2.92774,-6.89844 0.59961,-4.53906 c 0.79181,-5.98241 0.39201,-10.65155 -1.13672,-13.25977 -1.53981,-2.62712 -6.62126,-7.70604 -12.3789,-12.37305 -5.52386,-4.47755 -8.74132,-8.03281 -9.44336,-10.43164 -0.28355,-0.96889 -1.08389,-4.22013 -1.7793,-7.22656 -0.69541,-3.00641 -1.77847,-6.2809 -2.40625,-7.27539 -1.475,-2.33654 -5.38942,-6.24101 -8.18164,-8.16211 -2.6527,-1.82509 -9.40587,-4.99242 -11.72266,-5.49805 l -1.67773,-0.3457 2.54688,-2.2793 c 2.49539,-2.23509 7.30401,-4.57592 13.44335,-6.54297 3.79757,-1.21674 9.5712,-5.24599 11.93555,-8.33007 1.11316,-1.45197 2.92445,-4.47477 4.02539,-6.71875 1.10094,-2.24399 2.72245,-5.17051 3.60352,-6.50196 1.68191,-2.54169 4.87882,-5.9785 5.56054,-5.97851 0.22,0 0.40039,1.36565 0.40039,3.03515 0,3.90863 1.28994,12.55918 2.11719,14.18555 0.35176,0.69202 1.01373,2.7668 1.47071,4.60938 0.45698,1.84263 1.67054,5.02046 2.69726,7.0625 1.02672,2.04204 2.3233,5.37587 2.88086,7.4082 0.55756,2.03236 1.40633,4.61174 1.88672,5.73242 1.57588,3.67635 2.91583,13.2542 3.18359,22.76758 0.24372,8.6588 0.21737,8.97442 -1.02539,12.71875 -1.55299,4.67914 -2.18978,12.70197 -1.20898,15.2168 0.94603,2.42563 3.52791,7.79472 3.8789,8.06445 1.51339,1.16301 5.23829,11.95376 5.23829,15.17578 0,1.97433 -2.5324,10.17183 -4.33594,14.03711 -1.7728,3.79957 -1.74304,4.67752 -0.008,8.49023 4.19182,9.05645 4.03354,16.21229 -0.51563,23.33789 -0.78701,1.23273 -1.95934,2.5864 -2.60547,3.00977 -1.26567,0.82929 -1.55535,1.70898 -0.5625,1.70898 1.70874,0 7.00323,-6.61902 8.67969,-10.85156 0.61629,-1.55593 1.40195,-4.38229 1.74609,-6.28125 0.54565,-3.01091 0.51781,-4.14793 -0.21875,-8.88086 -1.00597,-6.46407 -0.73796,-8.56359 1.96094,-15.32812 1.55264,-3.89155 1.79406,-5.01674 1.78906,-8.33789 -0.006,-3.84916 -0.93577,-8.12155 -2.99414,-13.75391 -0.54515,-1.49171 -1.45285,-5.27011 -2.01758,-8.39844 -1.17852,-6.52843 -1.03498,-11.93077 0.49024,-18.56054 1.97159,-8.57 2.53235,-22.86266 1.19141,-30.32813 -0.88023,-4.90032 -3.27164,-11.68561 -5.34376,-15.16406 -2.53755,-4.2598 -2.89416,-9.47371 -0.78515,-11.47461 0.48883,-0.46379 1.71961,-0.96733 2.73437,-1.11914 1.69223,-0.25318 2.03876,-0.0935 4.19336,1.92187 1.29203,1.20853 2.92247,3.36504 3.6211,4.79297 1.37194,2.80413 1.39237,4.14975 0.18554,11.92383 -1.17775,7.5868 1.55565,12.75259 11.08594,20.95508 5.96157,5.13096 7.37286,9.36714 7.01758,21.04492 -0.17972,5.90727 -0.39638,7.48082 -1.43945,10.40625 -0.67591,1.89573 -1.7868,4.26792 -2.46875,5.27148 -0.68195,1.00356 -1.24024,2.02214 -1.24024,2.26368 0,0.24153 -0.71125,1.32503 -1.58008,2.4082 -2.08117,2.59462 -5.14062,6.93738 -5.14062,7.29688 0,0.15665 -0.39884,0.85781 -0.88672,1.55859 -1.30803,1.87879 -2.0725,5.56747 -2.0625,9.95117 0.0107,4.71076 1.33126,8.11399 4.49414,11.58789 5.58393,6.13297 10.99038,18.01361 10.98438,24.13477 -0.002,2.08431 -0.9287,7.10313 -1.94727,10.54101 -0.8538,2.88242 0.27602,2.75669 1.61914,-0.17969 0.68192,-1.49074 1.24024,-2.91963 1.24023,-3.17578 0,-0.25617 0.16536,-0.46484 0.36915,-0.46484 0.6165,0 1.55078,-5.97586 1.55078,-9.92383 0,-6.1814 -2.37842,-12.69615 -7.43555,-20.375 -2.38424,-3.6203 -3.82466,-8.15972 -3.78906,-11.9414 0.036,-3.81747 0.92482,-5.99838 3.66211,-8.99024 2.89557,-3.16488 5.71109,-8.09225 8.03125,-14.05078 3.23431,-8.3062 3.61437,-10.52443 3.57617,-20.87891 -0.0301,-8.18156 -0.14484,-9.43928 -1.11719,-12.21679 -1.63554,-4.67196 -3.34145,-7.30018 -6.61914,-10.19727 -4.03838,-3.56943 -6.74615,-7.11196 -7.45117,-9.74805 -0.51604,-1.92939 -0.45552,-2.70619 0.49219,-6.37695 2.0466,-7.92706 1.27645,-13.571 -2.56055,-18.7832 -2.47758,-3.36556 -5.21937,-5.29464 -9.35547,-6.58399 -1.57647,-0.49144 -2.86909,-1.05026 -2.87109,-1.24218 -0.002,-0.19193 0.49088,-0.67337 1.09375,-1.06836 2.41561,-1.58278 5.97096,-7.12543 7.55468,-11.77735 1.35718,-3.98643 1.51643,-4.97298 1.28321,-7.91992 -0.14653,-1.85147 -0.621,-4.33738 -1.05469,-5.52539 -2.15364,-5.89938 -1.22782,-13.70422 2.26562,-19.10547 0.73425,-1.13522 1.33399,-2.18836 1.33399,-2.3418 0,-0.15352 1.60071,-3.565975 3.55664,-7.582026 4.39004,-9.013867 6.20603,-14.710116 8.24023,-25.847656 0.8002,-4.38116 0.64845,-12.463789 -0.33398,-17.824219 -0.59107,-3.2251 -3.77987,-9.764514 -7.00781,-14.371094 -2.43828,-3.4797 -2.69716,-4.10469 -3.14258,-7.59375 -0.75877,-5.94369 0.69202,-16.436083 2.41601,-18.595703 10e-4,-0.006 0.003,-0.01293 0.006,-0.01953 0.009,-0.0192 0.0192,-0.03739 0.0312,-0.05469 0.0215,-0.0306 0.0416,-0.06275 0.0625,-0.09375 0.0237,-0.0313 0.048,-0.060645 0.0742,-0.089844 0.0158,-0.0173 0.0326,-0.033781 0.0488,-0.050781 v -0.00195 -0.00195 h 0.002 c 0.0301,-0.0502 0.0653,-0.097201 0.0996,-0.1445313 0.0383,-0.0483 0.0786,-0.096501 0.11719,-0.1445312 0.0514,-0.0594 0.1019,-0.1169351 0.1582,-0.171875 0.0281,-0.0267 0.0561,-0.053525 0.0859,-0.078125 l 0.002,-0.00195 c 0.0282,-0.0403 0.057,-0.078898 0.0879,-0.1171874 0.0336,-0.0447 0.0653,-0.091596 0.10742,-0.1289063 0.0162,-0.014 0.0237,-0.020203 0.041,-0.033203 0.0224,-0.0169 0.0455,-0.034181 0.0684,-0.050781 0.0182,-0.0273 0.0366,-0.054131 0.0547,-0.082031 0.0318,-0.0439 0.0667,-0.085796 0.0996,-0.1289063 0.0365,-0.0447 0.0745,-0.088003 0.11719,-0.1269531 0.0306,-0.028 0.062,-0.056531 0.0937,-0.082031 0.87721,-1.2351099 3.58433,-3.4307793 5.83593,-4.6308593 1.64901,-0.8789099 2.99805,-1.7845088 2.99805,-2.0117188 0,-0.0591 -0.0141,-0.1115532 -0.041,-0.1582031 -0.0423,-0.004 -0.0843,-0.00386 -0.12696,-0.00586 -0.0569,-0.002 -0.11547,-0.00497 -0.17187,-0.013672 -0.0628,-0.01 -0.12325,-0.022956 -0.18555,-0.035156 -0.0597,-0.0119 -0.11909,-0.02525 -0.17969,-0.03125 -0.0429,-0.005 -0.0858,-0.00777 -0.1289,-0.00977 z M 275.89648,36.791016 c 0.96167,0.001 2.41603,1.001475 2.13086,1.464843 -0.17874,0.28922 -0.44963,0.434116 -0.74609,0.447266 -0.49412,0.0219 -1.06051,-0.319682 -1.39844,-0.951172 -0.3691,-0.688622 -0.36914,-0.960095 0.0137,-0.960937 z M 123.08789,49.789062 h 0.002 0.002 c 0.004,-3.79e-4 0.008,5.1e-5 0.0117,0 0.47045,-0.003 2.05859,1.456032 2.05859,1.957032 0,0.22309 -0.2041,0.404297 -0.45313,0.404297 -0.54959,0 -2.01692,-2.010415 -1.69921,-2.328125 0.0179,-0.0179 0.0429,-0.02795 0.0723,-0.03125 h 0.002 0.002 z m 113.60352,2.783204 h 0.002 0.002 c 9.2e-4,-9e-5 0.005,-10e-6 0.006,0 0.0892,0.008 0.37183,0.35576 0.76172,0.96289 0.65073,1.01325 0.87321,1.792799 0.5918,2.074219 -0.0704,0.0704 -0.14199,0.107335 -0.21094,0.109375 -0.20681,0.006 -0.39924,-0.290196 -0.53906,-0.847656 -0.16435,-0.6548 -0.43058,-1.589642 -0.5918,-2.076172 -0.0378,-0.11415 -0.0469,-0.185601 -0.0332,-0.212891 l 0.002,-0.002 0.002,-0.002 0.002,-0.002 0.002,-0.002 h 0.002 z M 19.189453,74.224609 h 0.002 c 0.19976,-0.004 0.377452,0.254944 0.394532,0.845703 0.0134,0.462002 0.07729,1.867094 0.140624,3.121094 0.06,1.19522 0.05384,2.183438 0.0059,2.273438 v 0.002 l -0.002,0.002 h -0.002 v 0.002 h -0.002 -0.0039 c -0.001,0 -0.0039,-5e-5 -0.0059,0 h -0.002 c -0.28269,-0.0851 -1.109348,-3.723912 -1.111328,-4.919922 -0.002,-0.8202 0.312197,-1.320602 0.585937,-1.326172 z m 112.972657,1.158203 c 0.0998,-2.58e-4 0.23083,0.0336 0.39258,0.0957 0.37005,0.142 0.8172,1.022388 0.99219,1.955078 0.22673,1.20853 0.21309,1.847439 0.0254,1.886718 h -0.002 l -0.002,0.002 h -0.002 -0.002 c -0.17843,0.02 -0.50559,-0.473727 -0.93359,-1.498047 -0.7499,-1.79478 -0.90138,-2.440243 -0.46875,-2.441407 z m 147.72266,8.111329 h 0.002 c 8.8e-4,-1e-5 0.005,-8e-5 0.006,0 l 0.002,0.002 h 0.002 0.002 0.002 c 0.11566,0.0565 0.28834,0.84935 0.50977,2.375 0.21708,1.495627 0.15642,2.279297 -0.17774,2.279297 -0.29349,0 -0.50976,-1.049729 -0.50976,-2.478516 0,-1.39168 0.0524,-2.116468 0.15429,-2.173828 l 0.002,-0.002 h 0.002 0.002 z m 32.53515,8.257812 -0.76172,1.558594 c -0.40569,0.83139 -0.83633,1.518837 -0.97656,1.560547 h -0.002 -0.002 -0.002 c -10e-4,9e-5 -0.007,0 -0.008,0 -0.47735,0 -0.17035,-0.764552 0.77148,-1.919922 z m -77.57617,5.166016 h 0.002 c 0.003,-3e-5 0.006,1e-4 0.008,0 0.0231,-9.8e-4 0.042,0.007 0.0586,0.02344 0.13162,0.13162 -0.19896,1.069065 -0.73438,2.083985 -0.42353,0.80282 -0.79221,1.315249 -0.93359,1.324219 -10e-4,8e-5 -0.005,2e-5 -0.006,0 -0.007,-6.6e-4 -0.014,-0.003 -0.0195,-0.006 -5e-4,-3.4e-4 -0.003,-0.003 -0.004,-0.004 h -0.002 c -0.0161,-0.0151 -0.0277,-0.0462 -0.0293,-0.0918 -0.0265,-0.780641 1.25058,-3.274611 1.66016,-3.330081 z m -110.26367,0.447265 h 0.002 0.002 c 0.0518,-0.003 0.084,0.04591 0.084,0.146485 0,0.264 -0.20892,0.803219 -0.46485,1.199219 -0.15192,0.235117 -0.28951,0.370125 -0.375,0.384765 h -0.002 l -0.002,0.002 h -0.002 -0.002 -0.002 c -0.0519,0.003 -0.082,-0.04599 -0.082,-0.146484 0,-0.264 0.2109,-0.803209 0.46679,-1.199219 0.15195,-0.23509 0.28605,-0.370287 0.3711,-0.384765 h 0.002 0.002 z m -92.527346,4.017576 c 0.30497,-0.013 0.90752,0.37298 1.44336,0.94336 0.83766,0.89164 0.933405,1.18555 0.384765,1.18555 -0.92561,0 -2.528503,-1.73361 -1.939453,-2.09766 0.0303,-0.0188 0.0678,-0.0299 0.111328,-0.0312 z m 177.013676,2.1543 h 0.002 0.002 0.002 c 0.002,7e-5 0.004,-7e-5 0.006,0 h 0.002 l 0.002,0.002 h 0.002 0.002 0.002 0.002 l 0.002,0.002 0.002,0.002 0.002,0.002 0.002,0.002 0.002,0.002 0.002,0.004 v 0.002 c 0.0201,0.0677 -0.10466,0.32448 -0.35742,0.79883 -0.36036,0.67626 -0.65847,1.04451 -0.83789,1.0664 -0.006,7.1e-4 -0.012,2e-5 -0.0176,0 -0.10633,-2.5e-4 -0.16601,-0.13325 -0.16601,-0.4082 0,-0.23168 0.3596,-0.71776 0.79882,-1.08008 0.29417,-0.24268 0.47213,-0.38038 0.54493,-0.39258 z m -56.23438,0.31836 c 0.75746,-0.0282 6.65237,1.6749 7.10547,2.10351 0.30171,0.28544 0.19288,0.41465 -0.20898,0.40625 -0.66977,-0.014 -2.15675,-0.40994 -3.9375,-1.09961 -1.50242,-0.58181 -2.86062,-1.18691 -3.01758,-1.34374 -0.008,-0.008 -0.0158,-0.02 -0.0195,-0.0273 l -0.002,-0.002 v -0.002 c -1.4e-4,-7.8e-4 5e-5,-0.005 0,-0.006 v -0.002 l 0.002,-0.002 v -0.002 c 3.2e-4,-5e-4 0.003,-0.003 0.004,-0.004 v -0.002 c 0.0117,-0.009 0.0383,-0.0162 0.0742,-0.0176 z m 183.16406,7.58008 c -0.0104,0.0729 -0.0217,0.14577 -0.0312,0.21875 0.01,0.028 0.0215,0.056 0.0312,0.084 z m -86.35937,1.09961 h 0.002 0.002 0.002 0.002 0.002 0.002 0.002 0.002 c 0.0551,-0.004 0.15887,0.0305 0.31055,0.10546 1.52522,0.75424 2.84133,1.90333 3.41992,2.98438 0.21942,0.41001 0.32761,0.67166 0.29102,0.74805 v 0.002 l -0.002,0.002 -0.002,0.002 -0.002,0.002 c -0.005,0.003 -0.0108,0.006 -0.0156,0.008 l -0.002,0.002 h -0.002 -0.002 -0.002 l -0.002,0.002 h -0.002 c -0.17876,0.0135 -0.92226,-0.64156 -2.51562,-2.13281 -1.04341,-0.97656 -1.56589,-1.57186 -1.51562,-1.70118 l 0.002,-0.002 0.002,-0.002 v -0.002 c 8.8e-4,-10e-4 0.005,-0.005 0.006,-0.006 0.004,-0.003 0.0123,-0.009 0.0176,-0.0117 z m -16.20117,0.36718 c 0.15847,-0.0106 0.40909,0.14654 0.80664,0.40235 0.594,0.38222 2.80792,1.25194 4.91992,1.93359 4.39118,1.41725 6.73827,3.10457 10.40625,7.47852 5.61367,6.69414 7.7199,8.64357 11.17578,10.35156 2.54581,1.2582 4.27048,1.75284 6.86914,1.9707 1.9084,0.15999 3.46875,0.44133 3.46875,0.625 0,0.18368 -1.40622,3.16691 -3.125,6.62891 -3.571,7.19275 -6.97418,11.33766 -10.97656,13.36719 -4.05751,2.0575 -7.13495,3.57624 -9.41797,4.64843 -1.188,0.55793 -2.94621,1.61384 -3.9082,2.34766 -1.08595,0.82838 -1.67824,1.24534 -1.96289,1.24805 -0.28465,0.003 -0.26167,-0.40881 -0.12305,-1.23242 0.12245,-0.72605 0.44361,-2.61236 0.71289,-4.19141 0.26928,-1.57906 0.61443,-5.25122 0.76758,-8.16016 0.24772,-4.70538 0.1407,-5.80823 -0.96875,-9.99219 -0.68588,-2.58659 -2.30126,-7.01443 -3.58985,-9.83984 -4.47281,-9.80726 -5.31226,-12.30529 -5.32226,-15.82812 -0.003,-1.25834 0.003,-1.7401 0.26758,-1.75782 z m 55.16797,9.43555 h 0.002 0.002 0.002 0.002 0.002 l 0.002,0.002 0.002,0.002 c 0.025,0.0196 0.0554,0.10162 0.084,0.25 0.11441,0.594 0.11441,1.56617 0,2.16015 -0.0286,0.14836 -0.0591,0.23053 -0.084,0.25 h -0.002 l -0.002,0.002 h -0.002 -0.002 -0.002 -0.002 -0.002 -0.004 l -0.002,-0.002 -0.002,-0.002 -0.004,-0.002 c -0.0601,-0.0681 -0.10352,-0.54656 -0.10352,-1.32617 0,-0.77963 0.0415,-1.25805 0.10156,-1.32618 l 0.004,-0.002 0.002,-0.002 0.002,-0.002 h 0.004 z m -111.63282,0.37305 h 0.002 0.002 c 10e-4,-9e-5 0.005,-2e-5 0.006,0 0.21235,0 0.64388,0.70254 0.95898,1.56054 0.31511,0.858 1.01308,2.70425 1.55274,4.10352 0.53546,1.38833 0.86611,2.63664 0.74219,2.78516 -0.0109,0.0108 -0.0236,0.0188 -0.0371,0.0215 h -0.002 -0.002 -0.002 c -0.1516,0.0158 -0.44611,-0.45681 -0.69336,-1.12695 -0.27281,-0.73948 -1.03909,-2.69375 -1.70117,-4.34375 -0.65182,-1.62432 -1.01753,-2.95889 -0.82618,-3 z m -78.480466,0.14062 c 0.13979,-0.0124 0.354029,0.32347 0.511719,0.82032 0.1803,0.56776 0.219764,1.13948 0.08789,1.27148 -0.0144,0.0144 -0.03173,0.0242 -0.04883,0.0273 h -0.002 l -0.002,0.002 h -0.002 -0.002 -0.002 c -0.001,-5e-5 -0.0019,0 -0.0039,0 -0.13996,0.002 -0.35038,-0.33238 -0.50586,-0.82227 -0.18021,-0.56779 -0.218148,-1.13948 -0.08594,-1.27148 0.0165,-0.0165 0.03469,-0.0256 0.05469,-0.0273 z m -46.644531,0.43555 c 0.11907,-0.0206 0.350013,0.38074 0.789063,1.22461 0.46566,0.89502 0.434888,1.08008 -0.175782,1.08008 -0.47829,0 -0.736328,-0.45043 -0.736328,-1.28125 0,-0.65962 0.018,-1.00526 0.123047,-1.02344 z m 89.310547,4.31836 c 0.0827,-0.009 0.20093,0.0681 0.36133,0.22851 0.2832,0.28323 0.44457,1.22837 0.35937,2.09961 -0.0852,0.87124 -0.45805,1.683 -0.82812,1.80469 -0.0819,0.0269 -0.15422,0.0427 -0.21485,0.0449 -0.32743,0.0123 -0.3502,-0.36034 -0.14453,-1.38867 0.17207,-0.86036 0.3125,-1.90451 0.3125,-2.32031 0,-0.30275 0.048,-0.45683 0.1543,-0.46875 z m 165.31836,0.14648 0.0645,3.26563 c 0.0351,1.79709 -0.18009,4.23081 -0.47656,5.4082 -0.29647,1.17739 -0.72745,2.25925 -0.95898,2.40234 -0.0867,0.0536 -0.16043,0.0846 -0.21875,0.0898 -0.31494,0.0283 -0.2152,-0.65613 0.29296,-2.12109 0.27195,-0.78014 0.67361,-3.13515 0.89454,-5.23243 z m -207.06836,2.32422 c 0.0458,-0.005 0.101812,0.0691 0.164062,0.22461 0.13865,0.3465 0.122414,0.76041 -0.03711,0.91992 -0.0274,0.0274 -0.05393,0.0425 -0.07813,0.0449 -0.11679,0.0116 -0.191108,-0.25479 -0.173828,-0.67382 0.0137,-0.33201 0.0581,-0.50841 0.125,-0.51563 z m 188.63867,0 h 0.002 c 0.0458,-0.005 0.10181,0.0691 0.16406,0.22461 0.13865,0.3465 0.12454,0.76041 -0.041,0.91992 -0.0274,0.0274 -0.0519,0.0425 -0.0762,0.0449 -0.11678,0.0116 -0.193,-0.25479 -0.17578,-0.67382 0.0137,-0.33201 0.06,-0.50841 0.12695,-0.51563 z m 47.7461,0.75391 c 9.8e-4,0.52263 -0.001,1.05358 0.002,1.58008 0.003,-0.51866 0.004,-1.03803 0.002,-1.55664 -10e-4,-0.008 -0.003,-0.0155 -0.004,-0.0234 z m -275.996098,2.93164 h 0.002 c 0.0022,4e-5 0.0081,0.001 0.01172,0.002 h 0.002 0.002 0.0039 0.002 0.002 0.002 v 0.002 h 0.002 l 0.002,0.002 0.002,0.002 0.002,0.002 0.002,0.002 v 0.002 0.002 l 0.002,0.002 c 0.0208,0.0632 -0.0918,0.29217 -0.308593,0.69922 -0.59068,1.10909 -1.895382,2.35411 -2.357422,2.38086 -0.007,4e-4 -0.01458,1.8e-4 -0.02148,0 -0.0917,-0.003 -0.144531,-0.06 -0.144531,-0.18555 0,-0.59892 0.481644,-1.15374 2.121094,-2.44141 0.3732,-0.29313 0.587835,-0.4549 0.671875,-0.46875 z m 57.408198,3.47656 c 0.37749,-0.0197 -0.0976,1.13179 -1.3789,2.99219 -1.00008,1.45207 -1.9002,2.64062 -2,2.64062 -0.64825,0 0.94028,-3.38413 2.21094,-4.71093 0.59676,-0.62313 0.9836,-0.91227 1.16796,-0.92188 z m 70.19532,1.83008 h 0.002 0.002 0.002 0.002 0.002 c 0.11471,-0.001 0.15234,0.14709 0.15235,0.42578 0,0.25472 -0.48608,0.7176 -1.08008,1.0293 -0.43987,0.23082 -0.70534,0.36736 -0.79688,0.37695 h -0.002 c -10e-4,-3e-5 -0.002,1e-5 -0.004,0 h -0.002 l -0.002,-0.002 h -0.002 -0.004 -0.004 -0.002 -0.002 v -0.002 h -0.002 l -0.002,-0.002 -0.002,-0.002 -0.002,-0.002 -0.002,-0.002 v -0.002 -0.002 c -8e-5,-0.001 -4e-5,-0.005 0,-0.006 0.009,-0.078 0.23534,-0.33772 0.66211,-0.81836 0.58728,-0.66144 0.91271,-0.9748 1.08203,-0.99024 h 0.002 z m -90.080081,0.44336 h 0.002 c 0.264,0 0.465826,0.16137 0.447266,0.35937 -0.0186,0.198 -0.220376,0.79232 -0.447266,1.32032 -0.15379,0.35789 -0.255986,0.55942 -0.320312,0.58398 h -0.002 -0.002 c -0.001,8e-5 -0.0059,-2e-5 -0.0078,0 h -0.002 -0.002 l -0.0039,-0.002 h -0.002 -0.002 -0.002 l -0.002,-0.002 -0.002,-0.002 h -0.002 c -0.0599,-0.0574 -0.081,-0.36208 -0.0957,-0.9375 -0.0186,-0.726 0.181312,-1.32031 0.445312,-1.32031 z m 143.732421,4.21875 h 0.002 c 0.001,3e-5 0.003,5e-5 0.004,0 h 0.004 0.002 0.002 0.002 0.002 l 0.002,0.002 0.002,0.002 h 0.002 v 0.002 h 0.002 c 0.0302,0.021 0.0657,0.0947 0.0996,0.22461 0.12164,0.46702 0.11874,1.11447 -0.0176,1.43945 -0.027,0.0667 -0.0544,0.10549 -0.0781,0.11523 h -0.002 -0.002 c -8.8e-4,1.6e-4 -0.005,-4e-5 -0.006,0 h -0.002 c -8.6e-4,-4e-5 -0.005,1.6e-4 -0.006,0 h -0.004 -0.002 -0.002 l -0.002,-0.002 h -0.002 l -0.002,-0.002 -0.002,-0.002 c -0.0727,-0.0568 -0.12217,-0.41052 -0.11524,-0.95899 0.006,-0.47965 0.0541,-0.7705 0.11328,-0.81836 h 0.004 z m 95.50195,0.82031 c -0.01,0.0125 -0.0213,0.0253 -0.0312,0.0371 -0.016,0.34597 -0.006,0.68972 0.0195,1.0332 0.004,-0.35539 0.009,-0.71349 0.0117,-1.07031 z m -95.35546,1.88672 c 0.0394,-0.004 0.0812,0.006 0.125,0.0332 0.264,0.16316 0.48046,0.82434 0.48046,1.46875 0,0.62433 -0.20432,1.14033 -0.45703,1.17188 -0.008,10e-4 -0.0152,0 -0.0234,0 -0.264,0 -0.48047,-0.66117 -0.48047,-1.46875 0,-0.72281 0.14276,-1.18281 0.35547,-1.20508 z m -193.691411,3.63672 c 0.0012,-1.3e-4 0.0047,2e-5 0.0059,0 0.0022,7e-5 0.0055,2e-5 0.0078,0 0.53977,-0.006 0.434308,1.33505 -0.132812,1.68555 -0.27149,0.16779 -0.767449,0.98222 -1.105469,1.81054 -0.28419,0.69654 -0.544533,1.06634 -0.751953,1.08203 -0.0812,0.006 -0.152927,-0.0431 -0.216797,-0.14648 -0.35729,-0.5781 1.525169,-4.36567 2.193359,-4.43164 z m 256.037111,4.0332 c 0.20143,0.008 0.4646,0.0436 0.80078,0.10156 2.71582,0.46822 3.06022,0.6453 2.24609,1.16016 -0.36432,0.2304 -0.859,0.40366 -1.13672,0.40234 -0.0185,-9e-5 -0.0343,-0.002 -0.0508,-0.004 -1.27793,-0.12867 -2.102,-0.53373 -2.33789,-1.14844 -0.12603,-0.32841 -0.0609,-0.48712 0.29688,-0.50976 0.0537,-0.003 0.1145,-0.005 0.18164,-0.002 z m -157.58203,3.75391 c 0.35465,-0.0114 1.21451,0.63251 1.65625,1.33984 0.49093,0.78611 0.47144,0.94922 -0.11328,0.94922 -0.61164,0 -1.70118,-1.35333 -1.70118,-2.11328 0,-0.1188 0.0589,-0.17259 0.15821,-0.17578 z m -100.970706,8.48242 c 0.0816,-0.004 0.170188,0.0452 0.267578,0.14258 0.140561,0.14056 -0.0694,1.52664 -0.466796,3.08008 l -0.722657,2.82421 0.197266,-2.81054 c 0.15651,-2.22624 0.371179,-3.22046 0.724609,-3.23633 z m 250.445316,12.52734 c 0.004,-3.4e-4 0.008,0 0.0117,0 0.24272,0 0.72723,0.86457 1.07617,1.92188 0.46467,1.40795 0.51673,2.25281 0.21289,2.26367 -0.12828,0.005 -0.31847,-0.14068 -0.57031,-0.45312 -0.69294,-0.85966 -1.24106,-3.6883 -0.73047,-3.73243 z m -63.43164,2.05079 c 0.0637,-0.004 0.13065,-0.003 0.19921,0.002 0.528,0.0398 0.95899,0.34963 0.95899,0.68945 0,0.33982 -0.43095,0.61719 -0.95899,0.61719 -0.52798,0 -0.96093,-0.30986 -0.96093,-0.68945 0,-0.345 0.31554,-0.59079 0.76172,-0.61914 z m -39.58594,0.1914 c 0.19797,-0.025 0.66086,0.60641 1.19336,1.88086 0.36906,0.8833 0.67187,1.72085 0.67187,1.86133 0,0.14048 -0.16989,0.25586 -0.37695,0.25586 -0.20706,0 -0.73955,-0.97966 -1.18359,-2.17774 -0.44223,-1.1932 -0.49066,-1.79684 -0.30469,-1.82031 z m -31.1875,8.82813 h 0.002 0.002 0.002 0.002 0.002 c 0.0523,0.0217 0.1887,0.22816 0.42774,0.61132 0.30281,0.48539 0.66832,3.02402 0.8125,5.64063 0.13929,2.53533 0.14044,4.62658 0.0176,4.75391 v 0.002 h -0.002 l -0.002,0.002 h -0.002 -0.002 -0.002 -0.004 -0.002 l -0.002,-0.002 h -0.002 l -0.002,-0.002 -0.004,-0.002 c -0.14247,-0.15482 -0.39498,-2.19974 -0.56836,-4.67383 -0.18036,-2.574 -0.43291,-5.11262 -0.56055,-5.64062 -0.0956,-0.39562 -0.1441,-0.61925 -0.12695,-0.67578 v -0.002 l 0.004,-0.002 v -0.002 -0.002 l 0.002,-0.002 h 0.002 v -0.002 h 0.002 z m 98.02539,3.66015 h 0.002 0.002 c 0.18033,-0.0164 0.56455,0.70624 0.9375,1.80078 0.43398,1.27366 0.68944,2.41956 0.57812,2.57422 -9.3e-4,0.001 -0.003,0.003 -0.004,0.004 -0.0154,0.0154 -0.034,0.0262 -0.0527,0.0293 h -0.002 -0.002 -0.002 -0.002 c -0.13077,0.007 -0.32159,-0.28144 -0.46094,-0.71094 -0.16215,-0.49979 -0.51637,-1.37158 -0.78711,-1.93945 -0.27044,-0.56801 -0.39635,-1.32075 -0.2793,-1.67188 0.0164,-0.0494 0.0395,-0.0773 0.0684,-0.084 h 0.002 z m -20.5,6.58008 h 0.002 c 0.19836,-0.0466 0.55405,1.5817 0.81641,4.49024 0.16337,1.81048 0.21051,3.31192 0.11523,3.46874 v 0.002 l -0.002,0.002 -0.002,0.002 -0.002,0.002 h -0.002 -0.002 l -0.002,0.002 h -0.002 -0.002 -0.002 c -0.51742,0 -0.73427,-1.06257 -0.98633,-4.8457 -0.13679,-2.0533 -0.0793,-3.04323 0.0625,-3.1211 h 0.002 0.002 z M 52.267578,219.62695 c 0.0825,-0.001 0.179782,0.0492 0.294922,0.14453 0.32999,0.27343 0.599609,0.87651 0.599609,1.33985 0,0.46335 -0.331008,1.11673 -0.736328,1.45312 -0.2015,0.16723 -0.347616,0.26707 -0.449219,0.27149 -0.223539,0.01 -0.23278,-0.43755 -0.15039,-1.61133 0.0788,-1.12295 0.194026,-1.59327 0.441406,-1.59766 z m 100.009762,15.88477 h 0.002 c 0.0111,0 0.0226,0.006 0.0312,0.0117 0.29242,0.21685 -0.93997,3.69662 -1.58985,4.42773 -0.49411,0.55584 -0.81967,0.82702 -0.97656,0.83594 -0.29954,0.017 0.0132,-0.91916 0.93945,-2.63672 0.78644,-1.45199 1.50285,-2.63867 1.59375,-2.63867 z m 131.47657,0.31445 c 9.7e-4,-6e-5 0.005,-5e-5 0.006,0 h 0.002 l 0.002,0.002 h 0.002 l 0.002,0.002 h 0.002 v 0.002 h 0.002 c 0.0616,0.0352 0.14898,0.25614 0.27149,0.63867 0.21137,0.66 0.40534,1.57902 0.43164,2.04102 0.0255,0.44756 -0.15683,0.81724 -0.4082,0.83984 -0.008,7.3e-4 -0.0152,0 -0.0234,0 -0.264,0 -0.45991,-0.91901 -0.43359,-2.04101 0.0222,-0.94774 0.0533,-1.41444 0.1289,-1.47657 l 0.002,-0.002 h 0.002 l 0.002,-0.002 h 0.002 0.002 l 0.002,-0.002 h 0.002 z m 52.33398,2.73047 -0.01,0.008 -0.002,0.002 0.0117,0.008 c 3.7e-4,-0.005 -6.7e-4,-0.0106 0,-0.0156 z m -130.60937,24.33203 c 0.25786,-0.0184 0.967,0.31348 1.73828,0.90625 0.95181,0.73153 1.0882,1.09732 0.71679,1.92969 -0.21668,0.48561 -0.38139,0.71319 -0.57812,0.71875 -0.1346,0.004 -0.2837,-0.0962 -0.47656,-0.28906 -0.32783,-0.32782 -0.59571,-0.94088 -0.59571,-1.36328 0,-0.4224 -0.25937,-1.02695 -0.57617,-1.34375 -0.36903,-0.36904 -0.40494,-0.54597 -0.22851,-0.5586 z" />
  </g>
</svg>
