<?xml version="1.0" encoding="UTF-8" standalone="no"?>
<!-- Created with Inkscape (http://www.inkscape.org/) -->

<svg
   version="1.1"
   id="svg1"
   width="340.32001"
   height="340.32001"
   viewBox="0 0 340.32001 340.32001"
   sodipodi:docname="MYRK second iteration-1.svg"
   inkscape:version="1.4.2 (f4327f4, 2025-05-13)"
   inkscape:export-filename="MYRK second iteration-1.png"
   inkscape:export-xdpi="400"
   inkscape:export-ydpi="400"
   xmlns:inkscape="http://www.inkscape.org/namespaces/inkscape"
   xmlns:sodipodi="http://sodipodi.sourceforge.net/DTD/sodipodi-0.dtd"
   xmlns="http://www.w3.org/2000/svg"
   xmlns:svg="http://www.w3.org/2000/svg">
  <defs
     id="defs1" />
  <sodipodi:namedview
     id="namedview1"
     pagecolor="#ffffff"
     bordercolor="#000000"
     borderopacity="0.25"
     inkscape:showpageshadow="2"
     inkscape:pageopacity="0.0"
     inkscape:pagecheckerboard="0"
     inkscape:deskcolor="#d1d1d1"
     inkscape:zoom="2.8284271"
     inkscape:cx="175.53926"
     inkscape:cy="160.51324"
     inkscape:window-width="1920"
     inkscape:window-height="1121"
     inkscape:window-x="-9"
     inkscape:window-y="-9"
     inkscape:window-maximized="1"
     inkscape:current-layer="g1" />
  <g
     inkscape:groupmode="layer"
     inkscape:label="Image"
     id="g1">
    <path
       id="path1"
       style="fill:#000000"
       d="m 330.22461,1.7285156 v 0.00195 c -1.14406,-0.029457 -3.28743,0.544452 -5.29297,1.5214843 -6.13518,2.988861 -12.31382,11.0149959 -14.23437,18.4882809 -1.54538,6.013424 -0.65799,12.146691 2.64843,18.291016 1.02997,1.914 2.74027,5.082772 3.80078,7.041016 1.43895,2.657045 2.04569,4.453546 2.38672,7.080078 1.67618,12.909378 -2.07334,27.136282 -9.34179,35.449218 -10.22605,11.695598 -11.62057,16.475018 -9.23438,31.669918 0.83653,5.32692 0.52656,8.22064 -1.26172,11.75977 -1.57926,3.12547 -4.09131,5.57505 -5.36328,5.23047 -0.52417,-0.142 -1.33448,-0.7734 -1.80078,-1.4043 -0.77178,-1.04421 -0.80434,-1.72012 -0.36133,-7.52734 1.03239,-13.53342 0.83448,-15.58538 -2.97851,-30.859377 -3.35256,-13.429623 -3.08816,-20.001338 1.10547,-27.398437 4.71715,-8.320521 5.01027,-9.150431 4.92187,-14.001954 -0.13881,-7.621287 -2.61522,-13.056069 -8.21094,-18.023437 -5.64667,-5.012591 -11.89589,-6.659468 -18.62695,-4.90625 -5.07323,1.32141 -8.58588,4.222413 -12.41602,10.255859 -1.6731,2.635575 -2.35495,4.251459 -1.99609,4.546875 0.009,0.0043 0.018,0.0075 0.0273,0.01172 0.023,0.0092 0.047,0.01759 0.0703,0.02539 0.0185,-0.0066 0.0363,-0.01299 0.0547,-0.01953 0.0865,-0.02757 0.17532,-0.04805 0.26172,-0.07617 0.0855,-0.02678 0.17115,-0.05457 0.24805,-0.101563 0.0601,-0.03657 0.11918,-0.07537 0.17578,-0.117187 0.04,-0.03034 0.0782,-0.06366 0.11328,-0.09961 0.0417,-0.03866 0.0796,-0.0811 0.12696,-0.113281 0.0468,-0.03868 0.0915,-0.0795 0.14062,-0.115234 0.006,-0.0047 0.0118,-0.0089 0.0176,-0.01367 0.002,-0.0018 0.004,-0.0041 0.006,-0.0059 0.0589,-0.05966 0.11587,-0.12176 0.16797,-0.1875 0.0586,-0.07668 0.11266,-0.156631 0.16406,-0.238281 0.0568,-0.08454 0.10946,-0.171882 0.16406,-0.257812 0.054,-0.08188 0.11513,-0.157781 0.17383,-0.236328 0.0328,-0.04649 0.0665,-0.09379 0.0957,-0.142579 0.0126,-0.02111 0.0284,-0.03557 0.043,-0.04297 0.005,-0.0079 0.009,-0.01532 0.0137,-0.02344 0.0157,-0.02464 0.0325,-0.05 0.0488,-0.07422 0.0173,-0.02481 0.034,-0.04908 0.0508,-0.07422 0.0157,-0.0229 0.0304,-0.04794 0.0469,-0.07031 0.0208,-0.02752 0.0428,-0.05325 0.0645,-0.08008 0.0215,-0.02819 0.0421,-0.0564 0.0644,-0.08398 0.024,-0.03058 0.0487,-0.06046 0.0742,-0.08984 0.0202,-0.02371 0.0413,-0.04741 0.0625,-0.07031 0.0177,-0.0205 0.0316,-0.04351 0.0488,-0.06445 0.0192,-0.02385 0.0407,-0.04541 0.0586,-0.07031 0.0184,-0.02454 0.0386,-0.04908 0.0586,-0.07227 0.018,-0.02245 0.0359,-0.04458 0.0547,-0.06641 0.0156,-0.01831 0.0314,-0.03619 0.0488,-0.05273 0.0108,-0.0091 0.0223,-0.01648 0.0332,-0.02539 0.62178,-1.357644 4.33549,-4.13685 6.36718,-4.648438 2.87376,-0.723621 4.49694,-0.675582 8.56641,0.25 4.07993,0.927961 8.42355,3.090098 10.19141,5.074219 1.49373,1.676462 2.90324,5.521071 3.33789,9.101563 0.37246,3.068097 -0.95122,7.879102 -2.88282,10.482422 -4.75763,6.412395 -6.72507,12.789309 -6.35742,20.599609 0.17653,3.750247 0.58644,5.701916 2.22461,10.597656 2.64253,7.897377 3.73863,14.954807 2.97461,19.146487 -0.30741,1.68657 -0.96902,3.8454 -1.4707,4.79883 -0.98315,1.86848 -4.00416,4.5751 -5.91797,5.30273 -1.50712,0.573 -5.72479,0.19199 -8.35742,-0.75391 -2.08503,-0.74915 -6.03196,-4.64773 -7.35742,-7.26757 -1.36888,-2.70569 -4.26811,-6.71141 -5.88477,-8.13086 -1.72656,-1.51595 -4.79642,-2.71513 -8.35937,-3.26563 -1.48023,-0.2287 -2.30232,-0.68695 -3.00782,-1.67773 -2.81873,-3.95855 -3.53486,-8.141527 -2.17968,-12.746097 0.90457,-3.073517 2.53559,-16.552929 2.92773,-24.207031 0.52655,-10.2778 -1.01068,-14.822631 -7.34375,-21.726563 -1.86003,-2.027693 -3.39166,-4.076882 -3.47656,-4.640625 -0.008,-0.01219 -0.0162,-0.02426 -0.0234,-0.03711 -0.0224,-0.03835 -0.044,-0.07772 -0.0644,-0.117187 l -0.002,-0.002 v -0.002 -0.002 l -0.002,-0.002 v -0.002 c -2.2e-4,-1.87e-4 -0.003,-0.005 -0.0117,-0.02148 -0.0104,-0.02012 -0.0183,-0.04158 -0.0273,-0.0625 -0.006,-0.01503 -0.0116,-0.02997 -0.0176,-0.04492 v -0.002 h -0.002 v -0.002 l -0.002,-0.002 v -0.002 -0.002 c -7.2e-4,-0.0021 -0.003,-0.0077 -0.004,-0.0098 l -0.002,-0.002 v -0.002 l -0.002,-0.002 c 0,0 -0.001,-0.0045 -0.002,-0.0059 -0.002,-0.0053 -0.004,-0.01022 -0.006,-0.01563 -0.009,-0.02745 -0.0174,-0.05599 -0.0254,-0.08398 -0.005,-0.01812 -0.0109,-0.03658 -0.0156,-0.05469 -0.005,-0.009 -0.009,-0.01845 -0.0137,-0.02734 -0.0171,-0.03242 -0.0332,-0.06357 -0.0508,-0.0957 -0.0189,-0.03459 -0.0368,-0.06936 -0.0527,-0.105469 -0.008,-0.02008 -0.0159,-0.0415 -0.0215,-0.0625 -0.002,-0.0038 -0.004,-0.006 -0.006,-0.0098 -0.0262,-0.04918 -0.0527,-0.100064 -0.0723,-0.152344 -0.0181,-0.04454 -0.0389,-0.08704 -0.0625,-0.128906 -0.0225,-0.04485 -0.0451,-0.08885 -0.0605,-0.136719 -0.01,-0.03553 -0.019,-0.07286 -0.0254,-0.109375 l -0.002,-0.002 v -0.002 h -0.002 -0.002 v -0.0039 h -0.002 c -0.004,-0.005 -0.009,-0.01525 -0.0117,-0.02344 -0.006,-0.01965 -0.003,-0.0093 -0.008,-0.0293 -0.007,-0.02829 -0.0161,-0.05847 -0.0156,-0.08789 V 41.125 c -0.45694,-1.234928 -0.462,-7.010661 0.0684,-8.070312 0.0283,-0.0568 0.0689,-0.141205 0.12305,-0.25 0.008,-0.02167 0.0159,-0.04257 0.0234,-0.06445 0.0228,-0.06152 0.0489,-0.122858 0.0684,-0.185546 0.0169,-0.05318 0.0302,-0.107587 0.0488,-0.160157 0.0326,-0.06744 0.0704,-0.133059 0.10547,-0.199219 0.0361,-0.06018 0.0689,-0.12181 0.10547,-0.18164 0.0277,-0.04741 0.0576,-0.09474 0.0879,-0.140625 0.0247,-0.03882 0.0467,-0.07972 0.0625,-0.123047 0.013,-0.04057 0.0164,-0.08311 0.0234,-0.125 0.005,-0.05067 0.0198,-0.09951 0.0391,-0.146484 0.0249,-0.05195 0.0539,-0.102541 0.0859,-0.150391 0.0325,-0.05191 0.0724,-0.09839 0.10742,-0.148437 0.0252,-0.03884 0.0516,-0.07676 0.0742,-0.117188 0.017,-0.04032 0.034,-0.08123 0.0469,-0.123047 0.0141,-0.05015 0.0283,-0.09842 0.043,-0.148437 0.0179,-0.05117 0.0449,-0.09882 0.0703,-0.146485 0.0189,-0.0484 0.0507,-0.09 0.0762,-0.134765 0.0233,-0.03977 0.0484,-0.07712 0.0742,-0.115235 0.0241,-0.03862 0.0515,-0.07568 0.0742,-0.115234 0.024,-0.04325 0.0501,-0.08569 0.0742,-0.128906 0.0272,-0.04791 0.0587,-0.0928 0.0918,-0.136719 0.005,-0.0074 0.0105,-0.01434 0.0156,-0.02148 0.30799,-0.620534 0.63962,-1.289438 0.97266,-1.960938 2.35564,-4.74962 4.74512,-7.345867 9.81055,-10.654297 3.15699,-2.061956 3.27081,-2.194405 1.86133,-2.195312 -1.80431,-0.0012 -6.51825,2.011754 -8.55274,3.652343 -4.55729,3.674935 -5.9008,5.042763 -7.72656,7.867188 -2.73993,4.238637 -3.74618,7.833984 -3.70508,13.230469 0.0285,3.751333 0.25291,4.904629 1.62891,8.386718 0.87751,2.220639 2.59688,5.571205 3.82031,7.445313 2.89726,4.438152 3.36933,6.001366 3.36133,11.138672 -0.005,3.190327 -0.25072,4.834665 -0.96875,6.509765 -1.39357,3.251047 -4.59111,7.269864 -7.41797,9.322266 -1.35292,0.982275 -2.67554,2.02727 -2.93945,2.322266 -0.86011,0.961103 -3.2603,2.394889 -9.1211,5.451171 -6.12786,3.195561 -9.09437,5.779744 -11.60937,10.113278 -3.87198,6.67173 -5.71242,10.3373 -7.34961,14.64063 -1.00439,2.64001 -3.05464,7.36192 -4.55664,10.49414 l -2.73047,5.69531 -1.27735,-3.77539 c -2.55482,-7.55483 -7.3583,-14.00171 -13.54296,-18.17383 -1.17295,-0.79126 -2.24105,-1.55588 -2.37305,-1.69922 -0.57059,-0.61961 -7.78362,-3.84222 -11.61524,-5.18945 -10.41682,-3.662833 -13.82282,-6.970274 -18.16601,-17.64453 -1.0376,-2.550088 -2.21534,-6.228361 -2.61719,-8.173828 -0.39942,-1.94351 -1.03319,-4.344829 -1.40234,-5.333984 -0.357,-0.983492 -1.10916,-3.670548 -1.64453,-5.960938 -2.40664,-10.298835 -8.25549,-17.515158 -17.21875,-21.25 -5.03015,-2.09598 -5.58461,-2.549947 -10.28125,-8.423828 -5.41802,-6.776089 -8.272169,-13.554592 -8.234379,-19.556641 0.01103,-1.751626 -0.08754,-2.599703 -0.367188,-2.884765 l -0.002,-0.002 h -0.002 l -0.0039,-0.002 h -0.0039 l -0.0039,-0.002 c -0.0071,-0.0037 -0.01408,-0.0087 -0.02148,-0.01172 -0.02468,-0.0099 -0.05325,-0.0099 -0.07813,-0.01953 -0.03361,-0.0099 -0.06693,-0.01969 -0.101563,-0.02539 -0.03298,-0.0069 -0.06579,-0.01 -0.09961,-0.0098 -0.04016,-4e-4 -0.08095,4.22e-4 -0.121094,-0.002 -0.04116,-0.0011 -0.08208,-0.003 -0.123047,0.002 -0.0071,0.0012 -0.01435,0.0025 -0.02148,0.0039 -0.02624,0.01069 -0.0524,0.0212 -0.07813,0.0332 -9e-4,3.77e-4 -0.0029,0.0016 -0.0039,0.002 h -0.0039 c -0.04274,0.05484 -0.08857,0.106925 -0.130859,0.16211 -0.03664,0.04681 -0.06905,0.09674 -0.101563,0.146484 -0.02374,0.04272 -0.04108,0.08694 -0.0625,0.13086 -0.0246,0.0624 -0.04461,0.126766 -0.0625,0.191406 -0.0046,0.01655 -0.0093,0.03222 -0.01367,0.04883 -0.107023,0.886285 -0.309345,2.594979 -0.535157,4.519531 -0.143315,1.221457 -0.24274,2.186217 -0.298828,2.964844 -0.0014,0.188108 -0.0036,0.376284 -0.0039,0.564453 2.1e-4,0.153091 -0.0016,0.305989 -0.0039,0.458984 0.002,0.01788 0.0063,0.03492 0.0078,0.05273 0.0042,0.05558 0.0049,0.110333 0.0059,0.166015 -1e-4,0.05444 0.0058,0.109673 0.0078,0.164063 0.0012,0.03625 0.0022,0.01784 0.0039,0.05273 3.86e-4,0.013 -0.0039,0.02452 -0.0078,0.0332 0.01986,0.08448 0.03765,0.169748 0.05078,0.25586 0.03284,0.16781 0.05258,0.33886 0.07813,0.507812 0.0038,0.02795 0.0074,0.05619 0.01172,0.08398 0.02444,0.07213 0.05003,0.143741 0.07227,0.216797 0.04951,0.171378 0.07706,0.347834 0.117188,0.521484 0.03323,0.142595 0.06367,0.286906 0.08594,0.431641 v 0.002 c 0.282983,0.660565 0.502395,1.57909 0.505859,2.166015 0.0039,0.66084 0.413277,2.6032 0.910156,4.31836 2.937497,10.139817 6.299227,14.311998 15.113277,18.75 2.67441,1.346608 5.69076,3.240676 6.70313,4.208984 3.05421,2.921283 5.30445,8.177735 5.99023,13.996094 0.49396,4.190946 -0.31669,8.71849 -2.73632,15.246094 -1.75397,4.731824 -2.32962,5.875335 -5.09766,10.154297 -4.36154,6.742262 -5.38618,11.588942 -4.25781,20.148432 1.27015,9.63538 -0.1258,16.5718 -4.68164,23.2461 -2.96258,4.34018 -5.35891,10.47487 -6.36133,16.29297 l -0.59961,3.47656 -1.04492,-1.67969 c -0.941966,-1.51193 -1.326438,-3.88354 -1.203128,-7.4414 0.01829,-0.528 0.505308,-2.9033 1.080078,-5.2793 2.35829,-9.74866 2.23362,-17.34999 -0.35547,-21.83984 -3.443218,-5.9718 -6.034864,-8.64292 -12.310546,-12.69141 -5.143378,-3.31804 -5.997024,-4.28333 -9.361328,-10.587891 -3.803434,-7.12746 -5.0438,-11.322639 -4.638672,-15.681641 0.508334,-5.469479 5.114522,-16.297634 8.064454,-18.957031 1.857815,-1.674848 2.942145,-3.373348 2.376953,-3.722656 -0.689217,-0.42596 -5.239038,3.119774 -11.904297,9.277343 -5.10206,4.713437 -7.136942,6.989715 -9.75586,10.90625 -3.901593,5.83471 -4.354338,7.105016 -4.666015,13.136719 -0.186188,3.6032 -0.01986,5.46763 0.791015,8.880857 1.129885,4.75649 3.124314,10.12041 4.140625,11.13672 1.030233,1.03023 1.355704,3.90348 0.78711,6.96094 -0.580256,3.12017 -3.244296,8.96023 -5.09961,11.18164 l -1.201171,1.43945 -0.01758,-2.16797 c -0.02741,-3.44526 -2.210172,-10.762 -5.03125,-16.86523 -1.417478,-3.06679 -3.517295,-5.10382 -12.041015,-11.68555 -8.01216,-6.186412 -11.786081,-10.990745 -15.275391,-19.441404 -2.04379,-4.949794 -3.219637,-17.336818 -2.248047,-23.677734 0.95752,-6.249039 2.202333,-9.249906 6.507813,-15.681641 4.44259,-6.636556 4.877213,-7.536458 5.095703,-10.5625 0.23243,-3.21919 -0.770632,-2.820712 -2.044922,0.8125 -0.96749,2.758466 -1.793937,3.944555 -5.460938,7.851563 -4.476537,4.769542 -7.748458,9.6928 -9.111328,13.707031 -1.235953,3.640404 -1.807238,9.90088 -1.574218,17.226563 0.20881,6.564141 0.267946,6.874904 2.466796,12.964843 3.1862,8.824507 7.816131,15.415709 16.25,23.128909 8.586751,7.85267 11.634288,12.92803 13.154297,21.91211 0.798902,4.72198 0.799352,5.18496 0,9.66015 -0.69214,3.87497 -1.374369,5.76483 -3.880859,10.75977 -5.55795,11.07589 -7.238967,18.2113 -6.873047,29.1582 0.20093,6.01096 0.375266,7.08165 1.791016,10.98047 0.86279,2.376 2.2824,5.74045 3.15625,7.47656 1.72224,3.42165 4.774907,11.83689 5.554687,15.31641 0.77954,3.47846 -0.818293,18.7258 -2.689453,25.66797 -1.76035,6.53105 -6.595775,19.35422 -9.015625,23.9082 -2.68456,5.05215 -6.782107,9.16266 -11.654297,11.69336 -2.09787,1.08966 -4.57014,2.13969 -5.49414,2.33399 -4.90648,1.03163 -11.0178791,5.81947 -13.3242191,10.4375 -1.03584,2.07407 -1.3862725,3.72656 -0.7890625,3.72656 0.15767,0 1.2585125,-1.08039 2.4453125,-2.40039 0.9862865,-1.097 2.0190846,-2.02734 2.5410156,-2.31055 4.116e-4,-5e-4 0.00314,-0.005 0.00391,-0.006 v -0.004 l 0.00195,-0.002 c 0.00278,-0.002 0.00456,-0.003 0.00586,-0.004 l 0.00195,-0.002 0.00195,-0.002 c 5.1e-4,-5e-4 0.00274,-0.003 0.00391,-0.004 l 0.00195,-0.002 0.00195,-0.002 c 0.01276,-0.009 0.026435,-0.0164 0.039063,-0.0254 v -0.006 l 0.00195,-0.002 v -0.0117 H 9.9980469 10 h 0.002 c 0.008,-0.007 0.01511,-0.0145 0.02344,-0.0215 0.02147,-0.0163 0.04274,-0.0319 0.06641,-0.0449 0.02118,-0.0118 0.0432,-0.0254 0.06445,-0.0371 0.02506,-0.0143 0.04808,-0.0313 0.07227,-0.0469 0.02487,-0.016 0.05007,-0.0307 0.07813,-0.041 0.01304,-0.006 0.02582,-0.0117 0.03906,-0.0176 h 0.002 l 0.002,-0.0117 0.002,-0.0117 h 0.002 v -0.0117 l 0.002,-0.0117 0.002,-0.0117 v -0.0117 h 0.002 c 9.5e-4,-0.002 0.0028,-0.009 0.0039,-0.0117 l 0.002,-0.006 0.002,-0.0117 c 0.01777,-0.0175 0.03714,-0.0314 0.05664,-0.0469 0.02356,-0.018 0.04688,-0.0326 0.07031,-0.0508 0.02199,-0.0184 0.04639,-0.036 0.06641,-0.0566 0.02096,-0.0209 0.04314,-0.0391 0.06836,-0.0547 0.02558,-0.0175 0.05014,-0.0379 0.07617,-0.0547 0.02763,-0.0184 0.05273,-0.0359 0.08008,-0.0547 0.02772,-0.0181 0.05579,-0.0392 0.08399,-0.0566 0.02423,-0.0148 0.04617,-0.0319 0.07031,-0.0469 0.02114,-0.0147 0.04242,-0.0316 0.06445,-0.0449 0.01807,-0.0111 0.03376,-0.0229 0.05078,-0.0351 0.01872,-0.0137 0.03838,-0.0257 0.06055,-0.0332 0.01522,-0.007 0.02989,-0.0132 0.04492,-0.0195 0.0076,-0.006 0.01556,-0.0122 0.02344,-0.0176 0.0135,-0.008 0.02768,-0.0164 0.04101,-0.0254 0.01276,-0.009 0.02659,-0.02 0.03906,-0.0293 0.01291,-0.008 0.02375,-0.0213 0.03711,-0.0293 0.0095,-0.005 0.01927,-0.0119 0.0293,-0.0156 h 0.002 0.002 0.002 c 3.46e-4,-6.9e-4 0.0016,-0.009 0.002,-0.01 h 0.002 l 0.002,-0.002 h 0.002 l 0.002,-0.01 0.002,-0.0117 c 0.01478,-0.0111 0.02991,-0.0224 0.04492,-0.0332 0.01471,-0.01 0.02992,-0.0193 0.04492,-0.0293 2.8e-5,-3e-5 0.0046,-0.003 0.0059,-0.004 v -0.002 c 1.750905,-1.52335 7.694258,-3.86956 11.886719,-4.57422 2.86428,-0.48143 5.207555,-1.51316 7.421875,-3.26562 1.01931,-0.80671 3.074386,-2.25637 4.566406,-3.2207 8.24935,-5.33182 17.74436,-21.3038 21.394532,-35.98828 1.526947,-6.14287 2.410395,-16.39357 2.017578,-23.42188 -0.335074,-5.99519 -0.81943,-8.36592 -3.105469,-15.23047 -3.163662,-9.49987 -4.32277,-14.37505 -5.21875,-21.95312 -0.37096,-3.13749 1.151917,-13.34328 2.597656,-17.40821 1.845215,-5.18809 4.553264,-9.71555 8.326172,-13.91992 4.776389,-5.32265 7.767119,-9.90719 10.236328,-15.69726 2.646644,-6.20615 3.166622,-8.09557 3.169922,-11.51758 0.0044,-4.52178 -0.880302,-7.55514 -3.125,-10.72071 -1.129534,-1.59292 -2.366082,-3.64546 -2.748047,-4.56054 -0.7854,-1.8816 -1.498906,-5.263673 -1.111328,-5.263674 0.150743,0.02303 1.011746,1.505127 1.921875,3.312504 1.850455,3.67449 3.726065,6.5841 5.021484,7.79101 0.468964,0.43689 1.264138,1.30759 1.767579,1.93359 0.50344,0.62624 3.112823,3.02281 5.798828,5.32618 4.308534,3.69473 5.007798,4.51371 5.927734,6.95312 1.318341,3.49581 1.716905,8.9915 1.005859,13.86133 -0.700609,4.79857 -0.05335,11.69407 1.826172,19.44531 1.229984,5.07249 1.594302,5.90727 3.994141,9.15235 1.452506,1.96406 3.320598,4.0965 4.150391,4.73828 0.82979,0.64179 2.098664,1.61703 2.820314,2.16601 2.19735,1.67153 8.5122,4.97 11.47461,5.99414 3.39202,1.17268 9.94111,1.79535 10.4375,0.99219 0.20005,-0.32372 -0.12432,-0.7228 -0.79688,-0.97851 -0.62477,-0.23751 -1.77172,-0.96251 -2.54883,-1.61133 -0.77712,-0.64884 -2.09209,-1.52779 -2.92187,-1.95313 -2.03717,-1.04419 -4.83301,-4.96658 -5.76563,-8.08789 -1.82687,-6.11412 0.25236,-15.98806 4.83204,-22.94336 5.49159,-8.34029 6.00623,-10.42248 6.17773,-24.9707 l 0.13867,-11.75977 1.83985,-3.60156 c 2.76898,-5.415995 5.55654,-10.080077 6.02343,-10.080077 0.81432,0 2.94713,7.522737 3.49219,12.316407 0.46371,4.07823 0.42824,5.72516 -0.21484,10.08008 -0.42276,2.86298 -1.16651,6.49998 -1.65235,8.08398 -1.29393,4.21862 -1.18007,16.66516 0.20117,22.16016 1.22526,4.87281 3.18638,9.40922 5.15235,11.91992 5.67449,7.24682 9.59126,15.74405 12.42773,26.96094 2.73506,10.81587 3.17578,13.68652 3.17578,20.65625 0,8.02386 -0.98409,13.1911 -4.61718,24.25976 -2.71865,8.28271 -3.93347,10.95735 -8.33985,18.36328 -5.35409,8.99873 -7.11924,12.92667 -7.6914,17.10547 -1.09336,7.98546 0.75461,15.93831 4.90234,21.09961 1.68226,2.09334 6.65864,5.53447 10.94531,7.56836 3.34523,1.58719 9.45403,3.09187 9.86328,2.42969 0.0697,-0.11273 0.0187,-0.2539 -0.12109,-0.41016 -0.005,-0.002 -0.009,-0.004 -0.0137,-0.006 -0.0757,-0.023 -0.14971,-0.0487 -0.22461,-0.0742 -0.0731,-0.0247 -0.148,-0.0443 -0.2207,-0.0703 -0.0708,-0.0258 -0.14119,-0.053 -0.21289,-0.0762 -0.0762,-0.0245 -0.15377,-0.0477 -0.23047,-0.0703 -0.0832,-0.0259 -0.1664,-0.0523 -0.2461,-0.0879 -0.0707,-0.0297 -0.14049,-0.0626 -0.21289,-0.0879 -0.0525,-0.0155 -0.10445,-0.0346 -0.15625,-0.0527 h -0.002 -0.002 -0.002 l -0.002,-0.004 c -0.0511,-0.014 -0.10164,-0.0316 -0.15234,-0.0469 -0.0545,-0.0149 -0.10901,-0.0271 -0.16211,-0.0469 -0.0515,-0.0156 -0.10415,-0.0317 -0.15625,-0.0449 -0.0338,-0.008 -0.0668,-0.0185 -0.10157,-0.0215 -0.0386,-0.005 -0.0768,-0.0125 -0.11523,-0.0195 -0.0368,-0.008 -0.0753,-0.0133 -0.11133,-0.0254 -0.0381,-0.0122 -0.0761,-0.0263 -0.11328,-0.041 -0.0388,-0.0152 -0.0764,-0.0362 -0.10742,-0.0645 -0.0241,-0.0232 -0.052,-0.0278 -0.082,-0.041 -0.008,-0.004 -0.0169,-0.008 -0.0254,-0.0117 -0.0464,-0.0117 -0.0923,-0.0258 -0.13867,-0.0371 -0.0853,-0.02 -0.16916,-0.0434 -0.25196,-0.0723 -0.0693,-0.0252 -0.13698,-0.0506 -0.20508,-0.0781 -0.0144,-0.003 -0.0286,-0.009 -0.043,-0.0117 -0.1486,-0.034 -0.29785,-0.0672 -0.44141,-0.11914 -0.0539,-0.0224 -0.10724,-0.0475 -0.16016,-0.0723 l -0.002,-0.0117 -0.002,-0.0117 -0.002,-0.0117 -0.002,-0.0117 -0.002,-0.01 v -0.006 -0.002 l -0.002,-0.002 v -0.0117 -0.002 -0.004 h -0.002 -0.002 v -0.002 h -0.002 l -0.002,-0.0117 -0.002,-0.004 h -0.002 -0.002 c -0.0228,-0.007 -0.0459,-0.0141 -0.0684,-0.0215 -0.009,6.9e-4 -0.0175,0.001 -0.0273,-0.002 h -0.002 V 295 h -0.002 l -0.002,-0.002 -0.002,-0.002 -0.004,-0.004 c -0.0303,-0.008 -0.0618,-0.0134 -0.0918,-0.0234 -0.0366,-0.0121 -0.0733,-0.0218 -0.10937,-0.0352 -0.0353,-0.0148 -0.0701,-0.0343 -0.10547,-0.0488 -0.0167,-0.007 -0.0338,-0.0114 -0.0508,-0.0176 -0.0102,-7.4e-4 -0.0211,-0.007 -0.0332,-0.0117 -0.012,-0.004 -0.0233,-0.01 -0.0352,-0.0137 -0.0158,-0.006 -0.0311,-0.0115 -0.0469,-0.0176 -0.01,-3.8e-4 -0.0216,-0.002 -0.0332,-0.006 -0.0462,-0.0151 -0.0225,-0.007 -0.0703,-0.0234 -0.0804,-0.0289 -0.16038,-0.0593 -0.23828,-0.0937 l -0.002,-0.002 c -4.2187,-0.87481 -10.38603,-6.33791 -12.85156,-11.63672 -2.15891,-4.63983 -2.36454,-6.21181 -1.42969,-10.89453 0.8897,-4.4566 2.54169,-8.07155 4.67383,-10.22656 3.0118,-3.04412 5.12582,-6.04299 5.89844,-8.36914 0.44196,-1.33063 0.99326,-2.53745 1.22656,-2.68165 0.62158,-0.38417 5.38959,-10.41084 7.07031,-14.86914 0.79619,-2.11198 1.8084,-5.67592 2.25,-7.91992 0.4416,-2.24405 1.11323,-5.48322 1.49219,-7.19922 3.04508,-13.78873 2.79952,-27.04436 -0.77734,-42.10937 -2.01338,-8.47999 -5.14797,-14.73655 -10.41406,-20.78516 -1.02712,-1.17975 -3.0771,-4.13228 -4.55469,-6.56054 -2.22659,-3.65916 -2.78691,-5.03875 -3.27344,-8.05469 -0.72102,-4.46961 -0.4722,-7.22378 1.64844,-18.25 0.91394,-4.75199 1.84277,-9.93547 2.0625,-11.51953 l 0.39844,-2.88086 1.54882,0.14843 c 3.30908,0.31871 13.39994,4.61483 18.01954,7.67188 3.04093,2.01238 8.14588,10.43308 9.3789,15.46875 0.59662,2.43656 0.7265,8.0766 0.34375,14.87109 -0.30993,5.50157 0.41938,12.63631 1.69336,16.5625 0.98636,3.0398 6.30536,13.8574 8.61328,17.51758 2.59372,4.1134 3.60494,8.5779 3.58594,15.83985 -0.0166,6.34148 -0.057,6.58189 -1.85938,11.27929 -5.41397,14.10999 -5.25106,13.52682 -5.28906,18.96094 -0.0394,5.63615 0.86152,9.25058 3.70899,14.87891 2.22555,4.39905 7.84259,11.78102 13.85937,18.21679 6.43508,6.88319 8.07617,9.92018 8.07617,14.93555 0,3.03487 -0.19356,3.75869 -1.7539,6.54883 -0.96486,1.72535 -3.18393,4.89354 -4.93164,7.03906 -5.05782,6.20922 -5.38196,6.77738 -5.66602,9.91016 -0.37441,4.12901 0.55049,6.90104 3.23242,9.68359 2.10435,2.18323 3.35938,2.87314 3.35938,1.8457 0,-0.25371 -0.45266,-0.88543 -1.00782,-1.40234 -1.55552,-1.44921 -2.35892,-3.33937 -2.66015,-6.26367 -0.22845,-2.21773 -0.064,-3.14934 0.96484,-5.4668 1.37276,-3.09212 2.48592,-4.26094 5.34375,-5.61133 2.68165,-1.26713 8.14267,-6.9451 9.37696,-9.75 1.47428,-3.35023 1.69003,-6.74918 0.71093,-11.1875 -1.32884,-6.02092 -2.70395,-8.24174 -10.18164,-16.44336 -9.35267,-10.25811 -11.74049,-14.6606 -13.03906,-24.03125 -0.57888,-4.17726 0.36769,-9.01922 3.71094,-18.97851 2.8265,-8.41992 3.41297,-11.60265 3.41797,-18.54883 0.003,-3.76419 -0.24869,-5.9294 -0.95704,-8.22266 -1.2664,-4.10016 -2.65881,-7.19694 -3.97656,-8.84765 -6.67683,-8.36384 -9.56259,-17.26511 -8.01562,-24.72461 0.83044,-4.0044 3.46563,-9.3557 5.92383,-12.0332 1.0944,-1.19203 1.994,-2.3521 2,-2.57618 0.006,-0.22416 1.13141,-2.59849 2.5,-5.27734 1.36859,-2.67885 3.01243,-6.35108 3.65234,-8.16016 2.169,-6.13223 8.33558,-18.19078 10.8457,-21.20703 2.2645,-2.72109 7.78162,-6.821565 12.8711,-9.566404 2.37607,-1.281453 2.64224,-0.750479 0.91015,1.8125 -1.9805,2.930537 -2.88072,8.452604 -2.54297,15.591794 0.25488,5.38733 0.53004,6.96104 2.02149,11.51953 0.95013,2.90399 2.14751,5.96035 2.66015,6.79297 1.33361,2.16605 3.55427,8.84712 4.52344,13.60742 0.64546,3.17036 0.76845,5.41778 0.55274,10.08008 -0.23369,5.05081 -1.52519,13.19147 -2.51172,15.82617 -0.49648,1.3259 -1.64244,13.68511 -1.64844,17.77344 -0.003,2.24398 0.42358,6.34715 0.94922,9.11914 4.40723,23.24182 4.54367,24.28706 3.83984,29.52149 -0.28398,2.11198 -0.70114,5.5931 -0.92773,7.73632 -0.28787,2.72301 -1.36312,6.69844 -3.56641,13.19922 -5.454,16.09199 -5.13751,20.75857 1.67383,24.73633 2.91684,1.70342 3.91383,2.89077 4.64453,5.53711 0.40651,1.47227 0.27639,2.11328 -0.93945,4.64649 -0.6637,1.38284 -1.53127,2.71434 -2.08985,3.24218 -0.0401,0.0785 -0.0873,0.15278 -0.13867,0.22461 -0.0936,0.12617 -0.1886,0.25157 -0.2832,0.37696 -0.11485,0.12617 -0.22493,0.25495 -0.33789,0.38281 -0.15224,0.17088 -0.29523,0.35196 -0.45117,0.51953 -0.009,0.01 -0.0182,0.0178 -0.0274,0.0273 -0.14337,0.28704 -0.58954,0.63008 -1.14843,0.87891 -0.10973,0.0786 -0.21948,0.15492 -0.32618,0.23828 -0.13029,0.0958 -0.26387,0.18789 -0.40234,0.27149 -0.13109,0.0711 -0.24742,0.16601 -0.36719,0.2539 -0.14583,0.10242 -0.29757,0.1929 -0.45117,0.2832 -0.16035,0.10647 -0.33247,0.19075 -0.51172,0.25977 -0.18692,0.0799 -0.36206,0.18329 -0.54101,0.2793 -0.15886,0.0818 -0.32682,0.14571 -0.4961,0.20312 -0.0159,0.0116 -0.0311,0.0232 -0.0469,0.0352 -0.0848,0.0601 -0.17018,0.12174 -0.25782,0.17773 -0.1038,0.0657 -0.20283,0.13557 -0.3125,0.19141 -0.13462,0.0675 -0.27798,0.11684 -0.42187,0.16015 -0.187,0.0759 -0.37505,0.14685 -0.56641,0.21094 -0.22501,0.0705 -0.45471,0.12788 -0.68554,0.17578 -0.21104,0.0363 -0.42238,0.0637 -0.63282,0.10352 -0.26016,0.0691 -0.52002,0.13966 -0.77734,0.21875 -0.0279,0.009 -0.056,0.018 -0.084,0.0273 -0.48145,0.2275 -0.86423,0.46946 -1.02735,0.66602 -1.65841,1.99826 6.71987,0.81558 12.4668,-1.75977 3.0212,-1.35388 4.23654,-2.58728 5.82227,-5.90429 2.53272,-5.29917 1.82586,-8.63208 -3.45704,-16.32032 -2.96775,-4.31898 -3.3957,-5.53094 -3.08593,-8.7207 0.32452,-3.34164 3.23991,-12.40623 5.32617,-16.56055 0.88436,-1.76097 2.06957,-4.98561 2.63476,-7.16601 0.97612,-3.76572 1.01092,-4.60875 0.67774,-16.82227 -0.19292,-7.07186 -0.62924,-14.32451 -0.96875,-16.11523 -0.3395,-1.79072 -0.96748,-5.09051 -1.39453,-7.33399 -0.73493,-3.86082 -0.72785,-4.11364 0.0742,-4.71484 1.20339,-0.89913 3.82458,-0.37179 6.10156,1.22852 2.43833,1.71369 5.77636,6.06423 6.5039,8.4746 1.04307,3.45573 4.32199,10.41809 6.19922,13.16602 2.02765,2.9681 5.94764,6.85839 11.56641,11.48047 1.98,1.6288 4.19843,3.72383 4.93164,4.6543 2.23107,2.83126 3.85307,7.23097 4.43359,12.02929 0.90164,7.4524 1.74746,10.40226 4.60938,16.07227 2.77289,5.49362 2.66823,8.81588 -0.38281,12.1582 -2.34362,2.56739 -4.0011,6.2174 -4.0625,8.94336 -0.11327,5.02776 4.8393,9.98074 8.94921,8.94922 1.79602,-0.45077 1.45464,-1.06467 -0.92578,-1.66406 -3.19606,-0.80477 -5.2102,-4.25609 -4.39062,-7.52149 0.17359,-0.69162 2.11448,-3.06832 4.31445,-5.2832 6.71219,-6.75767 6.8338,-7.8185 2.14258,-18.87109 l -2.92773,-6.89844 0.5996,-4.53906 c 0.79181,-5.9824 0.39202,-10.65155 -1.13671,-13.25977 -1.53981,-2.62712 -6.62127,-7.70604 -12.37891,-12.37305 -5.52386,-4.47756 -8.74132,-8.03281 -9.44336,-10.43164 -0.28355,-0.96889 -1.08389,-4.22013 -1.7793,-7.22656 -0.69541,-3.00641 -1.77847,-6.2809 -2.40625,-7.27539 -1.475,-2.33654 -5.38942,-6.24101 -8.18164,-8.16211 -2.6527,-1.82509 -9.40585,-4.99242 -11.72265,-5.49805 l -1.67774,-0.3457 2.54688,-2.2793 c 2.49543,-2.23509 7.30402,-4.57591 13.44336,-6.54296 3.79757,-1.21674 9.57119,-5.24601 11.93554,-8.33008 1.11316,-1.45198 2.92445,-4.47476 4.02539,-6.71875 1.10094,-2.24399 2.72245,-5.17051 3.60352,-6.50196 1.68191,-2.54169 4.87883,-5.9785 5.56055,-5.97851 0.22,0 0.40039,1.36565 0.40039,3.03515 0,3.90864 1.2901,12.55919 2.11719,14.18555 0.35176,0.69203 1.01372,2.7668 1.4707,4.60938 0.45698,1.84262 1.67054,5.02045 2.69726,7.0625 1.02672,2.04204 2.3233,5.37587 2.88086,7.4082 0.55756,2.03236 1.40633,4.61175 1.88672,5.73242 1.57588,3.67636 2.91584,13.2542 3.1836,22.76758 0.24372,8.6588 0.21736,8.97442 -1.0254,12.71875 -1.55299,4.67914 -2.18978,12.70198 -1.20898,15.2168 0.94603,2.42564 3.52792,7.79472 3.87891,8.06445 1.51339,1.16301 5.23828,11.95376 5.23828,15.17578 0,1.97433 -2.5324,10.17183 -4.33594,14.03711 -1.7728,3.79957 -1.74861,4.67751 -0.008,8.49023 4.19182,9.05645 4.03354,16.2123 -0.51563,23.3379 -0.78701,1.23273 -1.95934,2.58639 -2.60547,3.00976 -1.26567,0.82929 -1.55535,1.70898 -0.5625,1.70898 1.70874,0 7.00323,-6.61902 8.67969,-10.85156 0.61629,-1.55593 1.40196,-4.38229 1.7461,-6.28125 0.54565,-3.01091 0.51781,-4.14793 -0.21875,-8.88086 -1.00597,-6.46407 -0.73797,-8.56358 1.96093,-15.32812 1.55264,-3.89155 1.79407,-5.01675 1.78907,-8.33789 -0.006,-3.84917 -0.93577,-8.12155 -2.99414,-13.75391 -0.54515,-1.49172 -1.45285,-5.27011 -2.01758,-8.39844 -1.17852,-6.52843 -1.03499,-11.93077 0.49023,-18.56054 1.97159,-8.57 2.53239,-22.86266 1.19141,-30.32813 -0.88022,-4.90032 -3.27164,-11.68561 -5.34375,-15.16406 -2.53755,-4.2598 -2.89417,-9.47371 -0.78516,-11.47461 0.48883,-0.46379 1.71962,-0.96733 2.73438,-1.11914 1.69223,-0.25318 2.03876,-0.0935 4.19336,1.92187 1.29203,1.20853 2.92246,3.36504 3.62109,4.79297 1.37194,2.80413 1.39238,4.14976 0.18555,11.92383 -1.17775,7.58681 1.55564,12.75259 11.08593,20.95508 5.96157,5.13096 7.37286,9.36714 7.01758,21.04492 -0.17972,5.90728 -0.39638,7.48082 -1.43945,10.40625 -0.67591,1.89572 -1.7868,4.26792 -2.46875,5.27149 -0.68195,1.00356 -1.24024,2.02215 -1.24024,2.26367 0,0.24154 -0.71124,1.32503 -1.58007,2.4082 -2.08117,2.59462 -5.14063,6.93738 -5.14063,7.29688 0,0.15665 -0.39884,0.85781 -0.88672,1.55859 -1.30803,1.87879 -2.0725,5.56746 -2.0625,9.95117 0.0107,4.71075 1.33126,8.11399 4.49414,11.58789 5.58393,6.13297 10.99038,18.01363 10.98438,24.13477 -0.002,2.08432 -0.9287,7.10313 -1.94727,10.54101 -0.85398,2.88239 0.27602,2.75669 1.61914,-0.17968 0.68188,-1.49075 1.24024,-2.91963 1.24024,-3.17579 0,-0.25617 0.16535,-0.46484 0.36914,-0.46484 0.6165,0 1.55078,-5.97586 1.55078,-9.92383 0,-6.1814 -2.37842,-12.69615 -7.43555,-20.375 -2.38424,-3.6203 -3.82466,-8.15972 -3.78906,-11.9414 0.036,-3.81748 0.92482,-5.99838 3.66211,-8.99024 2.89557,-3.16488 5.71109,-8.09225 8.03125,-14.05078 3.23431,-8.3062 3.61437,-10.52442 3.57617,-20.87891 -0.0301,-8.18156 -0.14484,-9.43929 -1.11719,-12.21679 -1.63554,-4.67197 -3.34145,-7.30018 -6.61914,-10.19727 -4.03838,-3.56943 -6.74615,-7.11207 -7.45117,-9.74805 -0.51604,-1.92939 -0.45552,-2.70619 0.49219,-6.37695 2.0466,-7.92706 1.27645,-13.571 -2.56055,-18.7832 -2.47758,-3.36556 -5.21937,-5.29464 -9.35547,-6.58399 -1.57647,-0.49144 -2.86909,-1.05026 -2.87109,-1.24218 -0.002,-0.19193 0.49088,-0.67338 1.09375,-1.06836 2.41561,-1.58279 5.97097,-7.12543 7.55469,-11.77735 1.35718,-3.98643 1.51642,-4.97298 1.2832,-7.91992 -0.14653,-1.85147 -0.621,-4.33738 -1.05469,-5.52539 -2.15364,-5.89937 -1.22782,-13.70422 2.26563,-19.10547 0.73425,-1.13522 1.33398,-2.18832 1.33398,-2.34179 0,-0.1535 1.60071,-3.565993 3.55664,-7.582036 4.39004,-9.013877 6.20604,-14.71011 8.24024,-25.847656 0.8002,-4.381158 0.64844,-12.46379 -0.33399,-17.824219 -0.59107,-3.225096 -3.77987,-9.76448 -7.00781,-14.371093 -2.43828,-3.479693 -2.69716,-4.104698 -3.14258,-7.59375 -0.75877,-5.943695 0.69202,-16.436085 2.41602,-18.595704 0.001,-0.0061 0.003,-0.01291 0.006,-0.01953 0.009,-0.01921 0.0192,-0.03736 0.0312,-0.05469 0.0215,-0.03064 0.0416,-0.06271 0.0625,-0.09375 0.0237,-0.0313 0.048,-0.06058 0.0742,-0.089844 0.0158,-0.017338 0.0326,-0.033802 0.0488,-0.050781 v -0.00195 -0.00195 h 0.002 c 0.0301,-0.050152 0.0653,-0.097218 0.0996,-0.1445313 0.0383,-0.048267 0.0786,-0.09653 0.11718,-0.1445312 0.0514,-0.059382 0.10191,-0.1169328 0.15821,-0.171875 0.0281,-0.026712 0.0561,-0.053455 0.0859,-0.078125 l 0.002,-0.00195 c 0.0282,-0.040324 0.057,-0.078862 0.0879,-0.1171875 0.0336,-0.044745 0.0653,-0.09159 0.10742,-0.1289063 0.0162,-0.014006 0.0237,-0.020218 0.041,-0.033203 0.0224,-0.016879 0.0455,-0.03422 0.0684,-0.050781 0.0182,-0.027262 0.0366,-0.054108 0.0547,-0.082031 0.0318,-0.043903 0.0667,-0.08577 0.0996,-0.1289063 0.0365,-0.044699 0.0745,-0.087988 0.11719,-0.1269531 0.0306,-0.028024 0.0613,-0.056512 0.0937,-0.082031 0.87721,-1.2351157 3.58434,-3.4307847 5.83594,-4.6308594 1.64901,-0.878911 2.99804,-1.7845009 2.99804,-2.0117187 0,-0.059049 -0.0141,-0.1115619 -0.041,-0.1582032 -0.0423,-0.00394 -0.0843,-0.00449 -0.12696,-0.00586 -0.0569,-0.0023 -0.11547,-0.00541 -0.17187,-0.013672 -0.0628,-0.00969 -0.12325,-0.022951 -0.18555,-0.035156 -0.0597,-0.011869 -0.11908,-0.02516 -0.17968,-0.03125 -0.0429,-0.00475 -0.0858,-0.00634 -0.12891,-0.00781 z M 275.87305,36.791016 c 0.96166,0.001 2.41628,1.001367 2.13086,1.464843 -0.47666,0.771253 -1.60385,0.506419 -2.14453,-0.503906 -0.36913,-0.68881 -0.36855,-0.960213 0.0137,-0.960937 z m -152.8086,12.998046 h 0.002 0.002 c 0.004,-3.87e-4 0.008,5.1e-5 0.0117,0 0.47045,-0.0034 2.05859,1.456023 2.05859,1.957032 0,0.223084 -0.20409,0.404297 -0.45312,0.404297 -0.54959,0 -2.01693,-2.010412 -1.69922,-2.328125 0.0179,-0.01792 0.0429,-0.02784 0.0723,-0.03125 h 0.002 0.002 z m 113.60352,2.783204 h 0.002 0.002 c 9.2e-4,-8.9e-5 0.005,-2e-6 0.006,0 0.0892,0.008 0.37183,0.355762 0.76172,0.96289 0.65073,1.013255 0.87321,1.792805 0.5918,2.074219 -0.28142,0.281413 -0.56358,0.0045 -0.75,-0.738281 -0.16435,-0.654803 -0.43058,-1.589647 -0.5918,-2.076172 -0.0378,-0.114149 -0.0469,-0.185604 -0.0332,-0.212891 l 0.002,-0.002 0.002,-0.002 0.002,-0.002 0.002,-0.002 h 0.002 z M 19.167969,74.224609 c 0.199756,-0.0041 0.377445,0.254942 0.394531,0.845703 0.01336,0.462002 0.07732,1.867094 0.140625,3.121094 0.06005,1.195219 0.05634,2.18343 0.0059,2.273438 v 0.002 l -0.002,0.002 h -0.002 v 0.002 h -0.002 -0.002 c -0.001,0 -0.0044,-5.6e-5 -0.0059,0 h -0.002 c -0.282688,-0.08509 -1.109351,-3.723919 -1.111328,-4.919922 -0.0017,-0.820207 0.312198,-1.320599 0.585938,-1.326172 z m 112.970701,1.158203 c 0.0998,-2.64e-4 0.23083,0.03364 0.39258,0.0957 0.37005,0.142001 0.81722,1.022389 0.99219,1.955078 0.43971,2.343818 -0.0184,2.538923 -0.91602,0.390625 -0.7499,-1.794771 -0.90138,-2.44025 -0.46875,-2.441407 z m 147.72266,8.111329 h 0.002 c 8.8e-4,-1.5e-5 0.005,-7.8e-5 0.006,0 9e-4,1.7e-4 0.005,0.0017 0.006,0.002 h 0.002 c 0.11566,0.05646 0.28834,0.849351 0.50977,2.375 0.21708,1.49563 0.15642,2.279297 -0.17774,2.279297 -0.29349,0 -0.50976,-1.049727 -0.50976,-2.478516 0,-1.391686 0.0524,-2.116475 0.1543,-2.173828 l 0.002,-0.002 c 0,-10e-7 0.005,-0.0015 0.006,-0.002 z m 32.53515,8.257812 -0.76171,1.558594 c -0.41213,0.844594 -0.84941,1.539083 -0.98243,1.560547 -10e-4,8.5e-5 -0.005,0 -0.006,0 -0.47735,0 -0.17034,-0.764552 0.77149,-1.919922 z m -77.57617,5.166016 h 0.002 c 0.003,-3.1e-5 0.006,9.9e-5 0.008,0 0.0231,-9.81e-4 0.042,0.0068 0.0586,0.02344 0.13162,0.13162 -0.19895,1.069065 -0.73437,2.083985 -0.45176,0.856331 -0.84136,1.381269 -0.95899,1.318359 -5e-4,-3.4e-4 -0.003,-0.003 -0.004,-0.004 h -0.002 c -0.0161,-0.0151 -0.0277,-0.0462 -0.0293,-0.0918 -0.0265,-0.780559 1.25057,-3.274609 1.66015,-3.330081 z m -110.26367,0.447265 h 0.002 0.002 c 0.0518,-0.0026 0.084,0.04594 0.084,0.146485 0,0.264 -0.20892,0.803218 -0.46484,1.199219 -0.25591,0.396 -0.4668,0.504234 -0.4668,0.240234 0,-0.264 0.21089,-0.803219 0.4668,-1.199219 0.15195,-0.235125 0.28604,-0.370286 0.37109,-0.384765 h 0.002 0.002 z m -92.527343,4.017576 c 0.304976,-0.013 0.907518,0.37298 1.443359,0.94336 0.83766,0.89164 0.933406,1.18555 0.384766,1.18555 -0.92561,0 -2.528503,-1.73361 -1.939453,-2.09766 0.03035,-0.0188 0.06776,-0.0299 0.111328,-0.0312 z m 177.013673,2.1543 h 0.002 0.002 0.002 c 0.002,7e-5 0.004,-7e-5 0.006,0 h 0.002 l 0.002,0.002 h 0.002 0.002 0.002 0.002 l 0.002,0.002 0.002,0.002 0.002,0.002 0.002,0.002 0.002,0.002 0.002,0.002 v 0.002 c 0.0201,0.0677 -0.10466,0.32448 -0.35742,0.79883 -0.59516,1.11694 -1.02148,1.3914 -1.02148,0.65821 0,-0.23168 0.35961,-0.71776 0.79883,-1.08008 0.29417,-0.24268 0.47212,-0.38038 0.54492,-0.39258 z m -56.23438,0.31836 c 0.75746,-0.0282 6.6524,1.6749 7.10547,2.10351 0.80465,0.76119 -1.29728,0.41009 -4.14648,-0.69336 -1.50242,-0.58181 -2.86062,-1.18687 -3.01758,-1.34374 -0.008,-0.008 -0.0158,-0.02 -0.0195,-0.0273 l -0.002,-0.002 v -0.002 c -1.4e-4,-7.8e-4 5e-5,-0.005 0,-0.006 v -0.002 l 0.002,-0.002 v -0.002 c 3.2e-4,-5e-4 0.003,-0.003 0.004,-0.004 v -0.002 c 0.0117,-0.009 0.0383,-0.0162 0.0742,-0.0176 z m 183.16407,7.58008 c -0.0104,0.0729 -0.0217,0.14577 -0.0312,0.21875 0.01,0.028 0.0213,0.056 0.0312,0.084 z m -86.35938,1.09961 h 0.002 0.002 0.002 0.002 0.002 0.002 0.002 0.002 c 0.0551,-0.004 0.15886,0.0305 0.31054,0.10546 1.52522,0.75424 2.84135,1.90333 3.41993,2.98438 0.6782,1.26723 0.33202,1.05865 -2.25782,-1.36523 -1.04341,-0.97656 -1.56589,-1.57186 -1.51562,-1.70118 l 0.002,-0.002 0.002,-0.002 v -0.002 c 8.8e-4,-10e-4 0.005,-0.005 0.006,-0.006 0.004,-0.003 0.0123,-0.009 0.0176,-0.0117 z m -16.20117,0.36718 c 0.15847,-0.0106 0.40909,0.14654 0.80664,0.40235 0.594,0.38222 2.80792,1.25194 4.91992,1.93359 4.39113,1.41725 6.73827,3.10457 10.40625,7.47852 5.61367,6.69414 7.7199,8.64357 11.17578,10.35156 2.54581,1.2582 4.27048,1.75284 6.86914,1.9707 1.9084,0.15999 3.46875,0.44133 3.46875,0.625 0,0.18368 -1.40622,3.16691 -3.125,6.62891 -3.571,7.19275 -6.97418,11.33766 -10.97656,13.36719 -4.05751,2.0575 -7.13495,3.57624 -9.41797,4.64843 -1.188,0.55793 -2.94621,1.61384 -3.9082,2.34766 -2.1719,1.65676 -2.36318,1.66229 -2.08594,0.0156 0.12245,-0.72605 0.44361,-2.61236 0.71289,-4.19141 0.26928,-1.57906 0.61443,-5.25122 0.76758,-8.16016 0.24772,-4.70538 0.1407,-5.80824 -0.96875,-9.99219 -0.68588,-2.58659 -2.30125,-7.01443 -3.58984,-9.83984 -4.47281,-9.80726 -5.31227,-12.30529 -5.32227,-15.82812 -0.003,-1.25834 0.003,-1.7401 0.26758,-1.75782 z m 55.16797,9.43555 h 0.002 0.002 0.002 0.002 0.002 l 0.002,0.002 0.002,0.002 c 0.025,0.0196 0.0554,0.10162 0.084,0.25 0.11441,0.594 0.11441,1.56615 0,2.16015 -0.0286,0.14836 -0.0591,0.23053 -0.084,0.25 h -0.002 l -0.002,0.002 h -0.002 -0.002 -0.002 -0.002 -0.002 -0.002 l -0.002,-0.002 -0.002,-0.002 -0.002,-0.002 c -0.0601,-0.0681 -0.10352,-0.54656 -0.10352,-1.32617 0,-0.77963 0.0415,-1.25804 0.10156,-1.32618 l 0.002,-0.002 0.002,-0.002 0.002,-0.002 h 0.002 z m -111.63281,0.37305 h 0.002 0.002 c 0.001,-9e-5 0.005,-2e-5 0.006,0 0.21235,0 0.64389,0.70254 0.95899,1.56054 0.31511,0.858 1.01307,2.70425 1.55273,4.10352 0.53967,1.39926 0.8744,2.65294 0.74219,2.78516 -0.13222,0.13221 -0.46351,-0.366 -0.73633,-1.10547 -0.27281,-0.73948 -1.03908,-2.69375 -1.70117,-4.34375 -0.65179,-1.62432 -1.01752,-2.95889 -0.82617,-3 z m -78.480473,0.14062 c 0.139788,-0.0124 0.354035,0.3235 0.511719,0.82032 0.1803,0.56776 0.21989,1.13948 0.08789,1.27148 -0.132,0.132 -0.388149,-0.22518 -0.568359,-0.79297 -0.18021,-0.56779 -0.217686,-1.13948 -0.08594,-1.27148 0.0165,-0.0165 0.03472,-0.0256 0.05469,-0.0273 z m -46.644531,0.43555 c 0.119074,-0.0206 0.350014,0.38074 0.789062,1.22461 0.465661,0.89502 0.434891,1.08008 -0.175781,1.08008 -0.478291,0 -0.736328,-0.45043 -0.736328,-1.28125 0,-0.65962 0.01798,-1.00526 0.123047,-1.02344 z m 89.310544,4.31836 c 0.0827,-0.009 0.20093,0.0681 0.36133,0.22851 0.2832,0.28323 0.44458,1.22837 0.35938,2.09961 -0.0852,0.87124 -0.45806,1.683 -0.82813,1.80469 -0.52424,0.17238 -0.60313,-0.12499 -0.35937,-1.34375 0.17207,-0.86036 0.3125,-1.90451 0.3125,-2.32031 0,-0.30275 0.048,-0.45683 0.15429,-0.46875 z m 165.31836,0.14648 0.0645,3.26563 c 0.0351,1.79709 -0.18009,4.23081 -0.47656,5.4082 -0.29647,1.17739 -0.72745,2.25925 -0.95898,2.40234 -0.55489,0.34299 -0.52856,-0.29498 0.0742,-2.03124 0.27195,-0.78014 0.6736,-3.13516 0.89453,-5.23243 z m -207.068358,2.32422 c 0.04578,-0.005 0.101813,0.0691 0.164063,0.22461 0.13865,0.3465 0.122517,0.76042 -0.03711,0.91992 -0.1595,0.1595 -0.272853,-0.1229 -0.251954,-0.6289 0.01367,-0.33201 0.05809,-0.50841 0.125,-0.51563 z m 188.640628,0 c 0.0458,-0.005 0.10181,0.0691 0.16406,0.22461 0.13865,0.3465 0.12548,0.76042 -0.0391,0.91992 -0.15951,0.1595 -0.27276,-0.1229 -0.25196,-0.6289 0.0137,-0.33201 0.06,-0.50841 0.12696,-0.51563 z m 47.74414,0.75391 c 9.8e-4,0.52302 -0.001,1.05329 0.002,1.58008 0.003,-0.51866 0.004,-1.03803 0.002,-1.55664 -10e-4,-0.008 -0.003,-0.0155 -0.004,-0.0234 z m -275.996096,2.93164 c 0.0023,-2.6e-4 0.01265,-1e-4 0.01953,0.002 h 0.002 0.002 0.002 0.002 v 0.002 h 0.002 l 0.002,0.002 0.002,0.002 0.002,0.002 c 1.29e-4,2.3e-4 0.0031,0.005 0.0039,0.006 0.02081,0.0632 -0.09181,0.29217 -0.308594,0.69922 -0.724583,1.36055 -2.523437,2.92554 -2.523437,2.19532 0,-0.59892 0.481643,-1.15374 2.121093,-2.44141 0.373207,-0.29313 0.587834,-0.4549 0.671875,-0.46875 z m 57.408206,3.47656 c 0.37749,-0.0197 -0.0976,1.13179 -1.37891,2.99219 -1.00008,1.45207 -1.9002,2.64062 -2,2.64062 -0.64825,0 0.94028,-3.38413 2.21094,-4.71093 0.59676,-0.62313 0.98361,-0.91227 1.16797,-0.92188 z m 70.19531,1.83203 c 0.12356,-0.0113 0.16406,0.13615 0.16406,0.42383 0,0.25472 -0.48608,0.7176 -1.08008,1.0293 -0.47153,0.24744 -0.73884,0.38429 -0.81054,0.375 h -0.002 -0.002 -0.002 -0.002 v -0.002 h -0.002 l -0.002,-0.002 -0.002,-0.002 -0.002,-0.002 -0.002,-0.002 v -0.002 -0.002 c -0.005,-0.0685 0.22157,-0.32807 0.66211,-0.82422 0.58728,-0.66144 0.91271,-0.9748 1.08203,-0.99024 z m -90.076172,0.44141 c 0.264,0 0.465826,0.16137 0.447266,0.35937 -0.01856,0.198 -0.220376,0.79232 -0.447266,1.32032 -0.154931,0.36054 -0.256051,0.56187 -0.320312,0.58398 h -0.002 -0.002 c -0.0022,1.5e-4 -0.0076,3.4e-4 -0.0098,0 h -0.002 l -0.002,-0.002 h -0.002 -0.002 -0.002 l -0.002,-0.002 -0.002,-0.002 h -0.002 c -0.0599,-0.0574 -0.081,-0.36208 -0.0957,-0.9375 -0.01855,-0.726 0.181312,-1.32031 0.445312,-1.32031 z m 143.730472,4.21875 h 0.002 c 0.001,3e-5 0.003,5e-5 0.004,0 h 0.002 0.002 0.002 0.002 0.002 l 0.002,0.002 0.002,0.002 h 0.002 v 0.002 h 0.002 c 0.0302,0.021 0.0657,0.0947 0.0996,0.22461 0.12169,0.46702 0.1177,1.11447 -0.0176,1.43945 -0.0288,0.0711 -0.0571,0.10875 -0.082,0.11523 -8.8e-4,1.6e-4 -0.005,-4e-5 -0.006,0 h -0.002 c -8.6e-4,-4e-5 -0.005,1.6e-4 -0.006,0 h -0.002 c -0.002,-8.5e-4 -0.007,-0.004 -0.01,-0.006 -0.0727,-0.0568 -0.12216,-0.41052 -0.11523,-0.95899 0.006,-0.47965 0.0541,-0.7705 0.11328,-0.81836 h 0.002 z m 95.5,0.82031 c -0.01,0.0125 -0.0211,0.0253 -0.0312,0.0371 -0.016,0.34597 -0.006,0.68972 0.0195,1.0332 0.004,-0.35567 0.009,-0.71349 0.0117,-1.07031 z m -95.35547,1.88672 c 0.0394,-0.004 0.0812,0.006 0.125,0.0332 0.264,0.16316 0.48047,0.82433 0.48047,1.46875 0,0.64442 -0.21647,1.17188 -0.48047,1.17188 -0.264,0 -0.48047,-0.66117 -0.48047,-1.46875 0,-0.72281 0.14276,-1.18281 0.35547,-1.20508 z m -193.691408,3.63672 c 0.0053,-5.2e-4 0.01051,5e-5 0.01563,0 0.53977,-0.006 0.434307,1.33505 -0.132813,1.68555 -0.27149,0.16779 -0.76943,0.98222 -1.107422,1.81054 -0.395429,0.96909 -0.741649,1.30301 -0.96875,0.93555 -0.357283,-0.5781 1.525171,-4.36567 2.19336,-4.43164 z m 256.037108,4.0332 c 0.20143,0.008 0.4646,0.0436 0.80078,0.10156 2.71582,0.46822 3.06023,0.6453 2.2461,1.16016 -0.3886,0.24576 -0.9235,0.42504 -1.1875,0.39844 -1.27793,-0.12867 -2.102,-0.53373 -2.33789,-1.14844 -0.12603,-0.32841 -0.0609,-0.4871 0.29687,-0.50976 0.0537,-0.003 0.1145,-0.005 0.18164,-0.002 z m -157.58203,3.75391 c 0.35465,-0.0114 1.21451,0.63251 1.65625,1.33984 0.49093,0.78611 0.47144,0.94922 -0.11328,0.94922 -0.61164,0 -1.70117,-1.35333 -1.70117,-2.11328 0,-0.1188 0.0589,-0.17259 0.1582,-0.17578 z m -100.970703,8.48242 c 0.08156,-0.004 0.170189,0.0452 0.267578,0.14258 0.14056,0.14056 -0.06936,1.52664 -0.466797,3.08008 l -0.722656,2.82421 0.197266,-2.81054 c 0.156511,-2.22624 0.371181,-3.22046 0.724609,-3.23633 z m 250.445313,12.52734 c 0.004,-3.4e-4 0.008,0 0.0117,0 0.24272,0 0.72723,0.86457 1.07617,1.92188 0.66086,2.00242 0.49088,2.86298 -0.35742,1.81055 -0.69294,-0.85966 -1.24106,-3.6883 -0.73047,-3.73243 z m -63.43164,2.05079 c 0.0637,-0.004 0.13066,-0.003 0.19922,0.002 0.528,0.0398 0.95898,0.34963 0.95898,0.68945 0,0.33982 -0.43098,0.61719 -0.95898,0.61719 -0.528,0 -0.96094,-0.30986 -0.96094,-0.68945 0,-0.345 0.31554,-0.59078 0.76172,-0.61914 z m -39.58594,0.1914 c 0.19797,-0.025 0.66086,0.60641 1.19336,1.88086 0.36906,0.8833 0.67188,1.72085 0.67188,1.86133 0,0.14048 -0.1699,0.25586 -0.37696,0.25586 -0.20706,0 -0.73955,-0.97966 -1.18359,-2.17774 -0.44223,-1.1932 -0.49066,-1.79684 -0.30469,-1.82031 z m -31.1875,8.82813 h 0.002 0.002 0.002 0.002 0.002 c 0.0523,0.0217 0.18869,0.22816 0.42773,0.61132 0.30281,0.48539 0.66832,3.02402 0.8125,5.64063 0.14038,2.55529 0.14425,4.6568 0.0176,4.75391 v 0.002 h -0.002 l -0.002,0.002 h -0.002 -0.002 -0.002 -0.002 -0.002 l -0.002,-0.002 h -0.002 l -0.002,-0.002 c -0.14186,-0.12597 -0.39558,-2.18222 -0.57031,-4.67579 -0.18036,-2.574 -0.43291,-5.11262 -0.56055,-5.64062 -0.0956,-0.39562 -0.14411,-0.61925 -0.12695,-0.67578 v -0.002 l 0.002,-0.002 v -0.002 -0.002 l 0.002,-0.002 h 0.002 v -0.002 h 0.002 z m 98.02539,3.66015 h 0.002 0.002 c 0.18033,-0.0164 0.56455,0.70624 0.9375,1.80078 0.43398,1.27366 0.68944,2.41956 0.57812,2.57422 -9.3e-4,0.001 -0.003,0.003 -0.004,0.004 -0.12501,0.12501 -0.35934,-0.18186 -0.52149,-0.68164 -0.16215,-0.49979 -0.51637,-1.37155 -0.78711,-1.93945 -0.27044,-0.56801 -0.39634,-1.32075 -0.27929,-1.67188 0.0164,-0.0494 0.0395,-0.0773 0.0684,-0.084 h 0.002 z m -20.5,6.58008 h 0.002 c 0.19836,-0.0466 0.55404,1.58173 0.8164,4.49024 0.16337,1.81048 0.21052,3.31192 0.11524,3.46874 v 0.002 l -0.002,0.002 c -4.2e-4,3.8e-4 -0.003,0.003 -0.004,0.004 h -0.002 l -0.002,0.002 h -0.002 -0.002 -0.002 c -0.5174,0 -0.73427,-1.06257 -0.98633,-4.8457 -0.13679,-2.0533 -0.0793,-3.04323 0.0625,-3.1211 h 0.002 0.002 z M 52.244141,219.62695 c 0.08246,-0.001 0.179816,0.0492 0.294921,0.14453 0.33,0.27343 0.59961,0.87651 0.59961,1.33985 0,0.46335 -0.331003,1.11673 -0.736328,1.45312 -0.644798,0.53516 -0.71945,0.36747 -0.59961,-1.33984 0.07882,-1.12295 0.194022,-1.59327 0.441407,-1.59766 z m 100.011719,15.88477 c 0.40579,0 -0.88774,3.68476 -1.55859,4.43945 -1.4374,1.617 -1.44767,0.81644 -0.0352,-1.80078 0.78644,-1.452 1.50285,-2.63867 1.59375,-2.63867 z m 131.47461,0.31445 c 9.7e-4,-6e-5 0.005,-5e-5 0.006,0 h 0.002 l 0.002,0.002 h 0.002 l 0.002,0.002 h 0.002 v 0.002 h 0.002 c 0.0616,0.0352 0.14897,0.25614 0.27148,0.63867 0.21137,0.66 0.40534,1.57902 0.43164,2.04102 0.0263,0.462 -0.16764,0.83984 -0.43164,0.83984 -0.264,0 -0.45989,-0.91901 -0.43359,-2.04101 0.0222,-0.94774 0.0533,-1.41444 0.1289,-1.47657 l 0.002,-0.002 h 0.002 l 0.002,-0.002 h 0.002 0.002 l 0.002,-0.002 h 0.002 z m 52.33398,2.73047 -0.008,0.008 -0.002,0.002 c 0.003,0.002 0.007,0.004 0.01,0.006 3.7e-4,-0.005 -6.7e-4,-0.0106 0,-0.0156 z m -130.60937,24.33203 c 0.25786,-0.0184 0.967,0.31348 1.73828,0.90625 0.95181,0.73153 1.08821,1.09732 0.7168,1.92969 -0.36494,0.81787 -0.57997,0.90441 -1.05469,0.42969 -0.32783,-0.32782 -0.5957,-0.94088 -0.5957,-1.36328 0,-0.4224 -0.25938,-1.02695 -0.57618,-1.34375 -0.36903,-0.36904 -0.40494,-0.54597 -0.22851,-0.5586 z" />
  </g>
</svg>
