<?xml version="1.0" encoding="UTF-8" standalone="no"?>
<!-- Created with Inkscape (http://www.inkscape.org/) -->

<svg
   version="1.1"
   id="svg1"
   viewBox="0 0 945.33331 945.33331"
   xmlns="http://www.w3.org/2000/svg"
   xmlns:svg="http://www.w3.org/2000/svg"
   preserveAspectRatio="xMidYMid meet">
  <defs
     id="defs1">
    <linearGradient
       id="swatch7">
      <stop
         style="stop-color:#000000;stop-opacity:1;"
         offset="0"
         id="stop7" />
    </linearGradient>
  </defs>
  <g
     id="g1">
    <path
       style="fill:#000000;stroke:none;stroke-width:1.24781;stroke-opacity:1"
       d="m 66.039998,935.06169 c 0.906273,-2.40602 3.07243,-6.56187 4.813691,-9.23524 6.111032,-9.38228 16.077159,-34.38981 16.726291,-41.97046 0.358312,-4.18453 1.69154,-15.04503 2.962706,-24.13447 5.34374,-38.20994 8.532629,-71.27044 10.304794,-106.83382 2.54582,-51.08895 2.25117,-53.11562 -14.75269,-101.47153 -17.720299,-50.39335 -19.147664,-65.88466 -10.902969,-118.33072 2.521751,-16.04129 13.188952,-47.70484 19.257343,-57.16172 6.451996,-10.05468 13.795086,-31.1134 16.378426,-46.9705 3.73078,-22.90034 2.40989,-44.06743 -4.11352,-65.91834 C 98.649457,336.02152 98.882143,336.40553 55.426246,278.38706 33.572057,249.20929 17.593358,216.0375 12.738684,189.76765 5.3384901,149.72334 5.6250206,109.0856 13.53268,77.155899 17.12383,62.65548 29.37671,30.207085 33.722497,23.688684 40.097123,14.127175 47.378995,5.502877 48.167908,6.5802447 48.609417,7.1831756 46.177318,13.247803 42.763217,20.057181 33.940305,37.654434 27.954235,56.960971 23.770154,81.314518 17.91489,115.39526 18.18977,147.04868 24.646668,182.24592 c 6.353442,34.63324 20.812349,60.36026 61.69638,109.77753 25.723462,31.09241 34.721702,49.74411 38.657062,80.1289 1.14584,8.84704 2.09516,22.57446 2.10958,30.50537 l 0.0263,14.41984 4.95834,-7.6149 c 6.49225,-9.97071 15.83856,-31.92653 24.16012,-56.75564 6.49309,-19.37345 6.64896,-20.27185 5.16094,-29.74716 -1.86526,-11.87733 -4.09101,-17.92156 -13.54971,-36.79576 -17.74639,-35.41171 -19.5861,-71.61897 -5.27366,-103.7914 14.27989,-32.09925 39.47835,-70.39422 51.82215,-78.7559 3.32377,-2.25151 7.42368,-5.459248 9.1109,-7.128298 1.94335,-1.922383 3.39539,-2.310518 3.96178,-1.058988 0.49175,1.086573 -3.13105,6.316166 -8.0507,11.621346 -10.00948,10.79387 -17.027,21.65733 -24.10195,37.31096 -4.66391,10.31909 -4.77485,11.06473 -4.77485,32.08796 0,21.34899 0.0482,21.65614 5.94532,37.91312 3.26992,9.01436 7.85522,19.98825 10.18954,24.38643 4.88411,9.20231 20.05797,27.59424 42.3267,51.30331 18.19465,19.37147 20.74217,22.79292 27.3065,36.67399 9.33455,19.73906 12.77351,48.96621 8.38144,71.23255 -1.05465,5.34674 -5.26717,19.03047 -9.36115,30.40828 -6.58804,18.30921 -7.53456,22.4993 -8.23502,36.45491 -0.90063,17.94441 0.95098,20.95586 3.74176,6.08551 1.97717,-10.5351 7.51023,-23.08188 21.45238,-48.64539 14.06735,-25.7931 16.3819,-33.98374 16.2079,-57.35575 -0.0796,-10.69343 -0.93461,-25.12957 -1.89998,-32.08033 -0.96538,-6.95074 -1.69039,-21.82433 -1.61115,-33.05247 0.13692,-19.40143 0.39699,-21.0903 5.23936,-34.02458 2.80241,-7.48541 8.57073,-20.17172 12.81847,-28.19181 22.98019,-43.38843 25.17052,-50.68329 25.10241,-83.60327 -0.0527,-25.47826 -2.09744,-47.62492 -5.97349,-64.700141 -2.31372,-10.192581 -4.58785,-15.46319 -10.04051,-23.270179 -3.87711,-5.551167 -7.0493,-10.776641 -7.0493,-11.612177 0,-4.595784 6.06717,-0.145526 13.17012,9.660353 9.00773,12.43545 16.96805,34.26404 19.82319,54.358674 0.87995,6.19308 2.04835,12.13509 2.59645,13.20443 0.54813,1.06935 2.44683,8.50617 4.21937,16.52625 10.78825,48.81281 20.27101,75.96078 31.67429,90.67956 9.78661,12.63202 16.27878,17.1251 33.56184,23.22728 50.18025,17.71735 53.55805,19.78581 72.50083,44.39708 16.91686,21.9791 23.6752,34.98767 28.91671,55.65933 l 3.98756,15.72622 7.9139,-20.1483 c 4.35265,-11.08157 9.56233,-26.23387 11.57706,-33.67179 13.63134,-50.32346 22.0842,-67.3997 40.96057,-82.74734 5.65514,-4.59798 16.05876,-14.25123 23.11913,-21.45163 7.06037,-7.20041 16.00157,-14.9441 19.86934,-17.20819 6.94061,-4.06285 23.44732,-18.41769 25.0859,-21.81558 0.46398,-0.9622 1.97333,-10.66987 3.35408,-21.57263 1.38075,-10.90276 3.08331,-22.35979 3.78346,-25.46006 2.0071,-8.88751 1.48861,-30.57199 -1.00738,-42.130754 -1.25421,-5.808142 -4.52925,-14.32661 -7.27785,-18.929936 -2.7486,-4.603312 -4.65749,-8.833953 -4.24197,-9.401387 1.60649,-2.193862 11.18532,5.946921 15.25586,12.965513 7.35591,12.683344 11.03611,30.895274 12.17451,60.246954 0.99862,25.74758 -2.13438,42.32418 -14.35331,75.94299 -8.35575,22.98974 -15.61561,48.47955 -18.3098,64.28677 -0.80153,4.7027 -0.42798,5.24355 4.45191,6.44602 10.27827,2.53262 23.08395,8.72245 36.5417,17.66292 15.43307,10.25278 22.55412,19.50683 35.53412,46.1778 4.27204,8.77809 10.06254,18.04277 12.86777,20.58819 2.80522,2.54541 12.6125,7.61161 21.79394,11.25824 12.98681,5.15803 18.75546,6.50483 25.97981,6.06542 l 9.28629,-0.56482 3.36785,-13.60982 c 3.76114,-15.19923 7.29586,-43.52575 7.27844,-58.32789 -0.006,-5.34671 -2.25555,-20.22033 -4.99836,-33.05245 -8.77844,-41.06967 -12.33721,-85.68262 -9.22806,-115.68363 3.88192,-37.45761 7.46375,-48.67976 21.9418,-68.745515 10.49694,-14.548153 16.91482,-20.483012 28.02613,-25.916829 8.06289,-3.943027 28.35731,-6.139618 28.35731,-3.069278 0,0.897127 -6.23188,4.22428 -13.8486,7.393684 -28.8105,11.988329 -38.9591,28.482338 -43.62124,70.895328 -6.5283,59.39008 -6.33652,65.24423 3.55051,108.38078 9.28737,40.52033 10.45635,66.92992 4.71721,106.57133 -8.21141,56.71789 -8.9071,72.71743 -3.33892,76.78699 7.95613,5.81481 25.58432,-12.31365 36.96385,-38.01288 3.13109,-7.07115 3.4355,-9.80644 3.35378,-30.13605 -0.0495,-12.29745 -0.83615,-25.9171 -1.7483,-30.2659 -2.80329,-13.36512 -4.47802,-42.85505 -3.09347,-54.47238 1.94044,-16.28179 6.66668,-27.36997 19.40556,-45.5273 12.38673,-17.65537 23.28652,-36.39182 23.28652,-40.02891 0,-1.22126 1.16162,-4.30703 2.58137,-6.85726 4.34831,-7.81064 7.23301,-21.22986 8.93786,-41.57776 0.89597,-10.69346 2.49315,-22.32258 3.54933,-25.84249 5.43956,-18.12858 33.62495,-54.844407 42.10202,-54.844407 5.10297,0 5.1471,2.494214 0.13399,7.572154 -13.36801,13.540919 -17.991,22.157425 -23.19502,43.231753 -3.18177,12.88493 -7.92287,43.16484 -8.99122,57.42408 -0.83444,11.13704 -7.24585,30.09142 -13.5092,39.93785 -2.24013,3.52165 -4.74598,8.15286 -5.56852,10.29155 -0.82255,2.13869 -5.10704,10.01295 -9.52109,17.49835 -12.38648,21.00515 -17.68909,37.55139 -18.75879,58.53478 -0.62477,12.2556 -0.20983,22.14858 1.42473,33.9692 3.36727,24.35089 2.99458,50.26386 -0.95021,66.06583 -6.22494,24.93571 -16.06403,41.71659 -31.09359,53.03106 -3.72729,2.80595 -4.28434,3.90942 -2.6169,5.18376 2.58262,1.97372 29.53546,10.77223 38.39064,12.53226 3.5237,0.70036 10.5711,4.07294 15.66087,7.49465 7.80304,5.24572 9.7627,7.61996 12.49725,15.14108 5.27233,14.50106 5.48708,25.27564 0.94691,47.50984 -5.50193,26.94415 -5.93075,37.18723 -2.00226,47.82729 4.84679,13.12724 15.35769,32.5059 19.10693,35.22693 4.93753,3.58341 20.44371,24.30948 22.75641,30.41695 5.5432,14.63861 8.80486,49.18246 6.3733,67.49878 -2.25724,17.00326 -10.85931,50.15802 -15.86897,61.16339 -2.41445,5.30411 -4.67551,9.25378 -5.0246,8.77703 -0.34911,-0.47671 0.38397,-5.07931 1.62905,-10.22796 1.24507,-5.14865 2.93799,-15.04818 3.76203,-21.99893 0.82402,-6.95073 1.87312,-15.26245 2.3313,-18.47048 2.6636,-18.64962 2.1024,-36.00355 -1.74434,-53.94067 -4.8329,-22.53555 -9.87807,-32.29696 -22.65106,-43.82538 -27.80015,-25.0914 -37.54201,-48.05064 -33.50205,-78.95637 0.99325,-7.59842 2.68101,-17.20625 3.75058,-21.35074 2.29445,-8.89082 2.49469,-18.4276 0.53472,-25.46752 -4.67736,-16.80051 -31.54233,-31.97991 -46.72074,-26.39843 -4.52913,1.66547 -6.158,3.36082 -6.85081,7.13043 -1.58744,8.63745 0.70594,25.09088 6.79503,48.74939 13.84485,53.7927 20.7982,101.91748 19.03234,131.72465 -2.14885,36.27236 -3.7933,48.44315 -9.16989,67.86774 -9.3267,33.69562 -10.52052,41.06106 -10.29773,63.53288 0.11155,11.25268 1.16667,25.51281 2.34468,31.68913 2.50689,13.14359 2.63855,15.57721 0.75676,13.98898 -3.81271,-3.21796 -11.42834,-52.37338 -11.42834,-73.76478 0,-5.82204 1.95079,-21.7987 4.33511,-35.50373 7.18514,-41.30005 7.11926,-75.3505 -0.24191,-125.04773 -3.69033,-24.91428 -14.10914,-72.08374 -23.56824,-106.70124 -14.50445,-53.08201 -17.46992,-67.85091 -17.51688,-87.23892 -0.0292,-12.0495 -1.05894,-12.52794 -10.10407,-4.69438 -7.19677,6.23279 -17.7684,26.65715 -19.33167,37.3487 -3.63515,24.86194 -33.40625,57.73298 -58.92877,65.06478 -5.53579,1.59026 -13.61745,5.18636 -17.95921,7.99134 -7.6812,4.96238 -17.56432,15.19036 -17.56432,18.17718 0,0.81527 4.00421,3.46355 8.89823,5.88504 30.8963,15.28698 65.2866,48.51049 71.68723,69.25501 1.02833,3.33281 2.9072,12.51944 4.17528,20.41477 4.05232,25.23071 10.58008,51.63616 13.94662,56.41556 4.55523,6.46692 10.89204,13.67296 15.90181,18.08303 11.26357,9.9153 27.71347,35.82261 34.01712,53.57433 5.3619,15.09966 4.03402,47.66769 -2.8305,69.42151 -3.21875,10.20028 -3.45456,10.53819 -2.44932,3.50987 0.61178,-4.27739 1.12322,-18.75318 1.13653,-32.16844 0.0278,-27.9667 0.6203,-25.97631 -15.4423,-51.87167 -9.52246,-15.35165 -13.95791,-20.19043 -29.61006,-32.30255 -3.64994,-2.82443 -9.92557,-10.17474 -13.94589,-16.33403 -6.95528,-10.65582 -15.72264,-32.11602 -15.72264,-38.48493 0,-6.92787 -6.15826,-27.038 -12.15896,-39.70571 -7.84548,-16.56213 -18.88841,-29.18417 -36.32646,-41.52109 -12.8079,-9.06119 -19.58755,-10.98403 -27.9409,-7.9246 -3.16727,1.16004 -7.57295,12.87783 -7.57295,20.14186 0,2.06529 2.50686,14.53609 5.57078,27.71292 12.09914,52.03385 12.90545,73.5688 5.00656,133.71561 -2.61419,19.90613 -3.41396,34.37446 -3.49287,63.18854 -0.0708,25.86595 -0.61869,35.13822 -2.5197,42.64538 -2.49096,9.83689 -7.39883,15.90393 -5.42599,6.70754 2.56854,-11.97313 2.45533,-27.32404 -0.38543,-52.26933 -3.29577,-28.94071 -4.11676,-66.09538 -2.31999,-104.99262 1.20359,-26.0562 -0.23383,-38.88716 -8.47572,-75.65704 -5.27208,-23.52063 -6.55679,-32.57934 -7.43916,-52.45522 -0.96511,-21.73949 1.73779,-38.90776 14.67475,-93.2112 1.10447,-4.63604 2.63213,-21.07322 3.39481,-36.52708 2.18561,-44.28602 -0.34235,-61.34625 -15.66601,-105.72408 -12.3776,-35.84591 -14.45359,-44.29038 -15.30336,-62.24904 -0.70683,-14.93725 3.15471,-42.52477 7.67005,-54.79622 1.0625,-2.88759 1.93182,-5.68881 1.93182,-6.22492 0,-0.53613 -6.56689,4.42221 -14.5931,11.01848 -26.57923,21.84395 -40.6515,46.04961 -51.69507,88.92055 -4.91562,19.08231 -17.60572,51.47709 -26.11444,66.66379 -13.82374,24.67323 -14.22607,25.91177 -15.95171,49.10602 -3.17816,42.71786 2.44041,75.14604 19.84975,114.56489 3.1914,7.2261 7.59055,20.25739 9.7759,28.95841 3.75486,14.9501 3.97363,17.69099 3.97846,49.84462 0.004,31.41053 -0.30818,35.59303 -4.07261,54.43934 -2.24274,11.22813 -4.64651,25.66426 -5.34169,32.08034 -0.69518,6.41606 -3.18475,20.93453 -5.53236,32.26325 -2.34763,11.32871 -4.26841,24.62814 -4.26841,29.5543 0,9.93061 2.54499,28.4766 4.32569,31.52237 0.63012,1.07777 2.09409,5.71888 3.25326,10.31357 2.45409,9.72738 8.83306,23.13635 13.42087,28.21139 1.76185,1.94898 3.20336,4.39157 3.20336,5.42801 0,2.4041 3.54988,7.23185 10.34861,14.0739 2.95109,2.96988 5.06856,6.05615 4.70549,6.8584 -0.36305,0.80225 3.23499,5.33854 7.99567,10.08064 4.76067,4.74213 10.06227,10.55798 11.78131,12.92415 1.71905,2.36616 6.1174,6.05347 9.77413,8.19402 6.29381,3.68425 7.73783,5.78303 5.79981,8.42963 -0.46681,0.63748 -6.36381,-2.71637 -13.10444,-7.45301 -6.74064,-4.73664 -13.08576,-8.61209 -14.10028,-8.61209 -1.0145,0 -1.84455,-0.72757 -1.84455,-1.61682 0,-0.88926 -3.36354,-4.57823 -7.47451,-8.19772 -22.02364,-19.39059 -41.45474,-54.60641 -49.29689,-89.34283 -7.79014,-34.50607 -7.04041,-52.69887 4.1264,-100.12953 7.20169,-30.58899 7.3229,-31.50376 7.26168,-54.80773 -0.0732,-27.84895 -2.11174,-46.09398 -6.8019,-60.87589 -6.74103,-21.24552 -9.83039,-30.28596 -14.60516,-42.73924 -14.23853,-37.13621 -18.5285,-53.33342 -19.57738,-73.9165 -0.55636,-10.9183 0.0176,-18.97836 2.28465,-32.08033 8.62857,-49.86808 8.90119,-66.84009 1.4653,-91.22384 -3.68294,-12.07706 -6.8352,-18.47369 -14.61719,-29.66147 -17.74653,-25.51322 -30.72441,-34.30595 -65.41691,-44.32092 -9.19653,-2.65484 -19.12696,-6.5009 -22.0676,-8.54685 l -5.34664,-3.71986 -0.16247,25.54794 c -0.18468,29.03664 -3.79116,51.58523 -12.88664,80.57043 -4.68057,14.91588 -4.99421,17.12316 -4.14399,29.16394 1.75418,24.84275 3.27648,30.27367 12.75277,45.49653 21.51391,34.5602 37.46912,74.19197 45.66869,113.43817 2.36677,11.32829 3.57931,23.92953 4.39645,45.69018 1.73165,46.11364 1.10218,61.1017 -4.33457,103.20887 -6.95295,53.84982 -12.56526,74.63525 -27.05307,100.19211 -12.27997,21.66215 -21.44037,34.69995 -29.09058,41.40397 -6.03959,5.29261 -26.57692,15.63787 -31.04418,15.63787 -4.6849,0 0.96391,-7.48302 10.9976,-14.56863 12.38731,-8.74769 33.49936,-40.35415 40.5621,-60.72483 8.39859,-24.22359 10.56678,-39.22768 15.24876,-105.52293 4.96983,-70.37092 3.3862,-104.68785 -6.78632,-147.05922 -6.36994,-26.53262 -10.63959,-35.33038 -30.0645,-61.94898 -21.26643,-29.14213 -23.92409,-36.59355 -23.92409,-67.07707 0,-21.50231 0.20163,-22.99224 5.26234,-38.88526 6.54585,-20.557 11.37409,-60.87153 11.64265,-97.2131 l 0.17961,-24.30328 -7.83044,-26.69318 c -4.30675,-14.68125 -8.1923,-26.71136 -8.63455,-26.7336 -0.44226,-0.0223 -1.8885,2.80304 -3.21388,6.27841 -1.3254,3.47536 -6.14348,14.63056 -10.70688,24.78934 -14.59837,32.49815 -14.78779,33.63154 -15.92268,95.26886 -0.93926,51.01284 -1.15622,54.1265 -4.72606,67.82941 -4.51494,17.33062 -12.8224,38.76289 -20.00819,51.61871 -14.49415,25.93101 -19.01287,56.88032 -11.8,80.81993 3.4473,11.44166 15.09875,32.53549 20.04715,36.29343 1.64968,1.25281 7.32397,2.87271 12.60952,3.59978 5.28555,0.72705 9.61008,1.96762 9.61008,2.75678 0,2.96045 -7.51836,5.94755 -14.96955,5.94755 -6.51891,0 -9.95909,-1.58053 -22.15869,-10.18038 -12.31453,-8.68085 -16.1485,-12.64099 -26.02929,-26.88593 -15.38026,-22.17341 -24.61065,-43.52649 -26.4397,-61.16416 -1.55603,-15.00484 0.53258,-34.30179 6.34413,-58.61427 3.07169,-12.85032 4.24275,-22.13632 5.59758,-44.38642 0.62303,-10.23186 -2.58119,-25.45993 -7.65706,-36.39012 -5.98314,-12.88393 -21.8798,-35.19411 -32.33962,-45.38709 -5.01373,-4.88583 -13.97844,-16.47883 -19.92159,-25.76224 -11.16682,-17.44292 -17.65576,-32.43381 -22.04025,-50.91794 l -2.53652,-10.69343 -0.0453,9.7213 c -0.0562,12.07933 2.42674,19.60134 15.38779,46.61534 14.11733,29.424 17.76359,48.8505 13.90835,74.10073 -4.31612,28.26873 -20.05073,64.24258 -42.45518,97.06478 -26.27051,38.48596 -37.43723,63.64452 -43.131514,97.17504 -4.468834,26.31453 -1.49575,66.3663 6.811894,91.76619 5.52511,16.89256 12.88921,51.2374 15.13659,70.59434 1.91702,16.51167 1.91268,56.1901 -0.009,80.68688 -1.80826,23.053 -6.70628,60.61235 -8.62056,66.10493 -0.74538,2.13869 -2.24423,8.26312 -3.33078,13.60985 -5.76566,28.37157 -13.038424,46.30538 -25.264624,62.29961 -8.231949,10.76899 -15.49223,18.38727 -17.523215,18.38727 -0.446623,0 -0.07058,-1.96856 0.835725,-4.37459 z M 663.70692,508.91263 c 2.05115,-1.4428 10.7535,-4.56112 19.33856,-6.92963 11.58797,-3.19695 17.45846,-5.92182 22.78744,-10.57712 10.87176,-9.49735 20.29434,-25.10514 27.36439,-45.32703 4.13521,-11.82765 8.99556,-21.97896 14.19615,-29.65001 l 7.90808,-11.66473 -4.78043,-0.006 c -7.69633,-0.0102 -29.80801,-5.81439 -34.56963,-9.07464 -8.00907,-5.48379 -19.3242,-22.52822 -25.98263,-39.13873 -3.55824,-8.87657 -8.48203,-18.71153 -10.94176,-21.85541 -7.03258,-8.98867 -19.14667,-16.81226 -31.32636,-20.23131 -18.02824,-5.06079 -20.00703,-2.07162 -11.45312,17.30119 14.58863,33.04015 22.46105,62.1371 26.20275,96.84708 2.35261,21.82397 -0.65097,56.06678 -7.14605,81.4701 l -4.14312,16.20432 4.40819,-7.37229 c 2.42451,-4.05478 6.08641,-8.55279 8.13754,-9.99558 z"
       id="path1" />
  </g>
</svg>
